<?xml version="1.0" standalone="no"?>
<!DOCTYPE svg PUBLIC "-//W3C//DTD SVG 20010904//EN"
 "http://www.w3.org/TR/2001/REC-SVG-20010904/DTD/svg10.dtd">
<svg version="1.0" xmlns="http://www.w3.org/2000/svg"
 width="981.000000pt" height="981.000000pt" viewBox="0 0 981.000000 981.000000"
 preserveAspectRatio="xMidYMid meet">
<metadata>
Created by potrace 1.14, written by Peter Selinger 2001-2017
</metadata>
<g transform="translate(0.000000,981.000000) scale(0.100000,-0.100000)"
fill="#000000" stroke="none">
<path d="M3126 7072 c-2 -1 -425 -4 -942 -6 -516 -2 -942 -5 -945 -5 -3 -1 -4
-454 -2 -1008 4 -1117 10 -2174 12 -2185 0 -5 10 -8 20 -8 11 0 23 -9 27 -22
6 -21 7 -21 20 -3 14 19 19 11 14 -25 -1 -11 3 -10 13 4 8 12 20 17 30 13 9
-3 19 -1 23 5 5 7 2 8 -6 3 -8 -5 -11 -4 -6 3 4 6 14 8 22 5 9 -3 19 0 24 6 5
9 9 8 13 -4 4 -9 3 -14 -1 -11 -4 2 -16 -2 -27 -10 -10 -8 -14 -14 -8 -14 7 0
14 4 18 9 3 6 15 8 26 6 17 -3 19 0 14 18 -4 16 -4 18 3 8 5 -7 12 -9 14 -5 3
5 3 3 2 -3 -4 -16 -9 -16 119 -17 69 -1 111 2 117 9 7 8 5 12 -5 12 -8 0 -12
-4 -9 -9 8 -13 -2 -9 -15 5 -9 11 -5 14 17 12 16 -1 26 -7 24 -15 -2 -7 3 -10
12 -7 8 3 17 1 20 -6 2 -7 5 -1 5 12 1 24 2 24 15 5 11 -14 11 -21 3 -26 -9
-6 -9 -8 0 -8 6 0 14 4 17 9 3 5 23 7 43 5 35 -3 36 -2 19 11 -10 8 -23 12
-27 9 -5 -3 -9 0 -9 6 0 13 32 9 43 -5 4 -6 11 -4 18 5 9 12 10 11 4 -5 -3
-11 -3 -16 1 -12 4 4 13 2 20 -4 8 -7 14 -6 20 2 4 8 3 9 -4 5 -8 -5 -10 -1
-5 9 4 13 8 14 14 4 4 -7 21 -12 38 -12 16 0 28 -3 26 -7 -2 -4 3 -7 11 -7 8
0 13 6 10 13 -4 10 1 11 19 4 25 -10 58 -4 51 9 -3 4 4 7 14 8 11 1 23 -3 26
-9 4 -6 10 -5 15 3 7 11 9 11 9 -1 0 -12 2 -12 9 -2 7 11 9 11 14 -1 4 -11 -2
-14 -24 -12 -16 1 -29 -1 -29 -5 0 -7 55 -6 70 1 6 2 26 5 55 8 17 1 18 3 5
11 -8 5 -10 10 -4 10 6 0 18 -8 25 -17 10 -11 10 -14 2 -9 -7 4 -13 3 -13 -2
0 -6 11 -9 24 -8 23 1 23 2 9 19 -10 10 -12 17 -5 17 7 0 12 -4 12 -10 0 -5
10 -10 23 -10 18 0 19 2 7 10 -8 5 -10 10 -4 10 6 0 18 -8 25 -17 10 -11 10
-14 2 -9 -7 4 -13 3 -13 -2 0 -6 11 -9 24 -8 13 0 22 4 19 9 -2 4 6 5 19 3 13
-2 22 -9 20 -16 -1 -6 2 -9 8 -5 6 3 8 10 5 15 -3 4 2 10 10 13 8 4 12 1 9 -7
-3 -7 4 -12 20 -12 14 0 22 4 20 8 -3 5 -9 6 -13 4 -4 -3 -8 1 -8 8 0 7 6 13
13 13 7 0 11 -4 8 -9 -6 -10 26 -6 46 7 13 8 13 7 1 -8 -12 -15 -12 -17 4 -11
14 6 16 4 10 -6 -5 -8 -4 -11 3 -6 6 3 9 15 7 26 -5 24 -1 25 16 3 9 -11 10
-14 2 -9 -9 5 -11 2 -6 -10 5 -15 7 -14 16 2 5 11 11 20 13 22 1 2 11 -1 23
-7 13 -7 22 -8 26 -1 8 13 25 13 25 -1 0 -5 -4 -8 -9 -4 -5 3 -12 1 -15 -3 -3
-5 -17 -8 -31 -7 -14 2 -25 0 -25 -4 0 -4 24 -7 54 -7 30 1 52 4 49 9 -2 4
-10 4 -16 1 -7 -4 -9 -3 -4 1 4 5 16 10 27 12 14 2 18 -2 14 -12 -4 -8 -1 -15
6 -15 6 0 8 5 5 10 -3 6 -1 10 5 10 6 0 9 4 6 8 -2 4 4 9 15 9 10 1 19 -3 19
-8 0 -6 -4 -8 -9 -4 -17 10 -21 -11 -6 -31 13 -19 13 -19 12 1 -2 16 4 19 33
20 19 0 40 7 47 15 10 12 11 11 7 -10 -2 -14 -2 -19 2 -12 3 6 17 12 30 12 18
0 23 -4 18 -12 -6 -10 -4 -10 8 0 9 7 18 9 20 5 3 -4 3 -2 1 6 -3 12 -1 12 14
0 15 -13 16 -12 11 8 -5 19 -3 21 10 14 10 -4 23 -6 30 -4 6 3 12 0 12 -6 0
-5 -9 -8 -20 -6 -11 2 -20 -1 -20 -7 0 -5 7 -8 15 -4 8 3 19 -3 25 -12 11 -16
11 -16 6 1 -4 13 0 17 17 17 13 0 28 5 35 12 13 13 17 -2 5 -17 -5 -6 -4 -7 1
-3 13 10 28 10 22 0 -2 -4 4 -9 15 -9 10 -1 19 3 19 8 0 6 -4 8 -9 5 -5 -3
-14 1 -20 8 -17 21 14 15 39 -7 25 -21 26 -5 3 19 -17 17 -17 18 0 11 10 -4
21 -7 23 -7 2 0 4 -8 4 -17 0 -15 2 -15 9 -4 5 8 17 16 25 17 9 1 14 -2 10 -7
-3 -5 -11 -6 -17 -3 -8 5 -8 3 0 -6 21 -23 40 -20 38 5 -2 18 1 22 16 18 10
-3 19 -9 19 -14 0 -5 -7 -5 -17 -2 -11 4 -14 3 -9 -6 5 -7 14 -10 21 -7 7 2
17 0 23 -6 8 -8 16 -8 26 2 9 7 23 10 31 6 9 -3 15 0 15 10 0 8 5 12 10 9 6
-4 7 -12 3 -18 -4 -7 1 -6 11 2 13 11 16 11 14 1 -2 -7 7 -13 19 -15 14 -1 19
3 16 12 -3 7 -9 10 -14 7 -5 -3 -9 0 -9 6 0 7 6 10 14 7 7 -3 18 -1 23 4 6 6
10 4 10 -5 0 -8 -5 -12 -10 -9 -6 3 -7 1 -3 -6 4 -6 12 -9 17 -5 5 3 17 0 26
-8 12 -9 15 -9 9 0 -4 6 -2 12 3 12 6 0 11 -6 11 -12 0 -8 3 -9 8 -3 11 16 61
18 79 3 15 -12 15 -11 3 9 -8 12 -20 19 -29 16 -14 -4 -14 -3 -1 5 8 6 18 8
22 5 5 -2 16 1 25 9 14 11 16 11 9 -1 -6 -9 -5 -12 5 -9 8 3 13 14 11 24 -3
18 -3 18 10 1 13 -18 15 -18 29 -1 12 15 12 16 0 9 -11 -6 -13 -4 -8 9 6 14 3
16 -16 11 -16 -5 -18 -4 -8 4 19 13 23 41 5 41 -8 0 -14 5 -14 10 0 6 -7 10
-15 10 -8 0 -15 5 -15 12 0 6 -3 9 -6 5 -13 -12 -208 129 -199 144 4 5 0 7 -7
4 -18 -7 -200 164 -194 182 3 8 2 11 -4 8 -5 -3 -21 11 -37 30 -15 20 -38 48
-50 61 -26 28 -28 40 -10 48 6 3 2 3 -10 0 -17 -4 -23 -1 -23 10 0 9 -5 16
-11 16 -5 0 -7 5 -4 10 3 6 1 10 -5 10 -6 0 -8 5 -5 10 3 6 -1 10 -9 10 -14 0
-20 12 -17 33 0 4 -4 7 -10 7 -5 0 -7 5 -4 10 3 6 1 10 -6 10 -8 0 -8 4 1 15
11 13 10 14 -3 10 -8 -4 -18 -2 -22 4 -3 6 -2 11 3 11 6 0 -3 14 -19 31 -22
24 -27 35 -19 44 8 10 8 15 -1 21 -8 5 -10 3 -5 -7 4 -8 0 -5 -8 5 -12 15 -13
23 -4 33 9 11 8 13 -3 11 -8 -2 -13 3 -11 10 1 6 -3 12 -9 12 -8 0 -7 5 1 16
11 13 10 16 -8 21 -25 6 -27 13 -9 32 6 8 7 11 2 8 -6 -3 -17 3 -24 15 -9 15
-9 18 0 13 7 -5 10 -3 7 6 -3 8 -11 13 -18 11 -7 -2 -10 3 -7 12 4 9 2 18 -3
21 -6 4 -10 19 -10 36 0 16 -5 29 -12 29 -6 0 -3 6 8 14 16 12 17 17 6 28 -11
11 -12 10 -7 -4 4 -10 3 -18 -2 -18 -5 0 -10 11 -11 26 -1 18 2 23 11 18 8 -5
8 -2 -2 9 -7 9 -17 14 -22 12 -4 -3 -6 3 -4 15 2 11 0 22 -4 24 -10 6 -7 74 4
84 5 4 5 1 0 -7 -5 -9 -4 -12 3 -7 9 5 9 12 0 26 -7 10 -15 17 -18 15 -4 -2
-7 2 -7 10 0 8 4 12 9 9 4 -3 8 -1 8 5 0 5 -6 12 -12 14 -10 4 -10 6 0 6 6 1
12 6 12 12 0 5 -5 7 -12 3 -7 -5 -9 -2 -6 8 4 8 2 21 -2 28 -6 9 -2 19 8 28
15 12 15 13 1 9 -9 -3 -16 1 -16 9 0 7 4 11 9 8 4 -3 5 1 2 9 -3 8 -1 18 5 22
6 3 11 11 11 17 0 7 -5 6 -14 -1 -12 -10 -13 -8 -9 10 5 17 3 20 -8 14 -12 -8
-12 -6 0 8 7 9 10 17 6 17 -4 0 1 12 10 27 16 23 16 25 1 20 -9 -4 -16 -2 -16
3 0 9 15 14 33 11 5 -1 5 3 2 9 -4 6 -14 9 -24 6 -12 -5 -11 -2 3 9 11 8 25
15 30 15 6 1 2 8 -9 18 -11 9 -21 26 -22 37 -1 19 -1 19 12 2 11 -16 13 -16
19 -2 3 9 2 14 -3 11 -5 -3 -12 1 -15 10 -4 10 -2 13 7 9 6 -4 3 1 -8 11 -15
13 -16 15 -3 11 9 -3 19 0 22 9 9 23 7 31 -3 16 -7 -11 -9 -11 -14 2 -4 9 -1
15 5 13 15 -3 29 51 16 59 -6 4 -8 2 -4 -4 3 -6 2 -13 -3 -16 -5 -4 -8 1 -7 9
4 26 17 30 32 11 8 -11 14 -15 14 -9 0 7 -5 15 -12 19 -7 5 -5 11 7 21 12 8
14 13 6 13 -11 0 -11 3 -1 15 7 8 9 15 4 15 -4 0 -3 5 4 12 9 9 7 18 -11 37
l-22 25 30 -19 c29 -18 30 -18 14 1 -18 21 -15 44 6 44 8 0 17 5 21 11 4 7 0
9 -14 5 -12 -4 -22 -1 -25 8 -4 10 0 12 16 8 20 -5 21 -4 7 14 -15 18 -14 18
15 0 l30 -19 -25 28 c-14 16 -19 25 -11 20 11 -6 13 -4 8 9 -5 14 -3 17 8 12
8 -3 14 0 12 7 -1 7 4 11 11 9 9 -2 10 3 4 15 -15 27 -12 75 3 69 7 -2 21 2
32 10 17 14 17 15 -7 10 -14 -3 -19 -3 -12 0 10 5 10 9 1 21 -7 8 -8 13 -3 12
5 -1 22 3 38 10 28 11 28 12 11 37 -9 15 -12 23 -6 20 11 -7 15 4 12 34 -1 11
1 10 10 -3 8 -13 8 -22 -1 -32 -8 -9 -8 -15 0 -20 6 -4 9 -1 8 7 -2 7 2 12 9
11 8 -2 10 4 6 14 -5 12 -3 14 7 8 8 -5 11 -4 6 3 -3 5 -1 12 6 14 7 3 5 7 -6
11 -9 4 -15 3 -11 -2 3 -5 2 -12 -3 -15 -17 -10 -8 24 10 41 10 9 18 11 18 5
0 -6 -6 -13 -12 -15 -10 -4 -10 -6 -1 -6 19 -1 25 17 12 40 -8 16 -8 20 1 14
7 -4 10 -1 8 11 -2 15 3 19 29 19 30 0 31 1 19 20 -12 19 -12 21 5 22 11 1 17
-2 14 -7 -3 -6 1 -7 11 -3 14 5 15 7 1 15 -9 5 -14 15 -11 23 4 8 11 12 16 9
6 -4 5 -10 -3 -15 -10 -6 -10 -9 -2 -9 6 0 15 5 18 10 4 6 11 7 17 4 7 -4 8
-2 4 5 -4 6 -11 9 -16 6 -5 -3 -8 3 -7 14 1 15 4 17 14 9 8 -6 16 -8 20 -4 3
3 0 6 -8 6 -12 0 -12 2 0 9 8 5 19 8 25 7 6 -2 8 -1 4 1 -5 3 -8 9 -8 14 0 6
5 7 10 4 6 -4 9 -3 8 2 -1 4 2 19 6 31 6 17 13 22 27 19 12 -3 17 -1 12 6 -4
7 0 8 11 4 9 -4 15 -3 11 2 -3 6 3 14 12 20 10 6 14 10 8 10 -5 0 -21 -6 -35
-14 -30 -17 -40 -18 -40 -5 0 6 3 9 8 9 28 -5 34 1 21 19 -12 15 -12 16 1 6
19 -15 60 0 60 21 0 9 5 13 10 10 6 -4 7 -11 4 -17 -4 -7 -2 -8 5 -4 6 4 8 12
5 18 -5 7 -1 9 9 5 11 -4 14 -2 11 7 -3 8 0 17 7 22 8 5 10 3 4 -7 -7 -11 -6
-12 7 -2 8 7 18 11 21 8 4 -3 5 -2 2 1 -8 12 16 45 27 38 7 -5 8 -2 3 6 -6 10
-14 6 -33 -16 -15 -18 -20 -21 -13 -8 6 12 7 25 3 29 -4 3 0 5 8 3 8 -1 14 2
13 8 -1 6 4 11 12 11 8 0 12 -4 10 -8 -3 -4 2 -9 10 -12 9 -4 12 -1 9 7 -3 7
2 19 10 26 9 7 14 16 11 20 -2 4 7 5 22 2 18 -3 24 -1 19 7 -7 11 -6 12 30 16
28 3 44 13 44 28 0 7 -4 6 -11 -3 -9 -13 -10 -13 -6 0 2 8 15 15 28 16 13 1
29 2 34 4 6 1 14 2 18 1 5 -1 6 3 2 9 -3 6 -10 8 -15 5 -4 -3 -14 3 -21 13
-10 13 -10 14 0 6 14 -13 51 -7 51 8 0 5 -10 7 -22 3 -20 -5 -21 -4 -7 7 29
24 -5 67 -69 89 -28 9 -458 20 -466 11z m514 -142 c8 -5 11 -10 5 -10 -5 0
-17 5 -25 10 -8 5 -10 10 -5 10 6 0 17 -5 25 -10z m-250 -160 c0 -5 -5 -10
-11 -10 -5 0 -7 5 -4 10 3 6 8 10 11 10 2 0 4 -4 4 -10z m-20 -31 c0 -5 -4 -9
-8 -9 -5 0 -9 7 -9 15 0 8 4 12 9 9 4 -3 8 -9 8 -15z m-37 -14 c-3 -9 -8 -14
-10 -11 -3 3 -2 9 2 15 9 16 15 13 8 -4z m-115 -145 c-7 -10 -14 -18 -15 -16
-6 6 9 36 18 36 5 0 4 -9 -3 -20z m-213 -329 c-6 -5 -25 10 -25 20 0 5 6 4 14
-3 8 -7 12 -15 11 -17z m-75 -141 c0 -5 -8 -10 -17 -10 -15 0 -16 2 -3 10 19
12 20 12 20 0z m-932 -166 c-2 -9 8 -23 22 -31 21 -13 22 -13 8 0 -21 17 -23
33 -6 43 7 5 9 2 5 -9 -3 -9 1 -18 10 -21 10 -4 13 -2 10 6 -3 8 5 14 19 14
20 2 21 0 9 -13 -18 -18 -19 -27 -2 -16 6 4 20 6 30 5 9 -2 17 2 17 8 0 7 7 5
16 -4 11 -11 20 -13 33 -7 13 7 18 6 18 -4 0 -8 -4 -12 -9 -9 -15 9 -8 -3 9
-17 9 -8 14 -9 10 -3 -4 7 0 15 9 18 9 4 18 5 18 4 1 -2 8 -14 14 -28 7 -14
10 -17 8 -8 -4 12 -1 15 10 11 7 -3 14 -9 14 -15 0 -5 5 -6 10 -3 6 3 10 1 10
-6 0 -7 3 -10 6 -6 8 7 94 -77 94 -92 0 -6 4 -11 9 -11 14 0 61 -85 77 -142
65 -216 -25 -446 -220 -566 -33 -20 -61 -36 -63 -35 -1 1 -22 -5 -45 -13 -56
-20 -197 -25 -259 -9 -49 13 -132 50 -158 70 -63 49 -129 119 -124 133 4 10 2
13 -5 8 -12 -7 -16 5 -13 33 2 7 -2 10 -8 6 -6 -3 -15 6 -21 22 -6 15 -14 35
-18 43 -11 18 -4 42 9 35 5 -4 6 1 3 10 -5 11 -10 13 -19 5 -9 -7 -11 0 -9 30
1 22 -1 40 -6 40 -10 0 -7 27 5 37 4 4 5 3 2 -3 -4 -6 0 -20 9 -30 14 -18 15
-18 4 4 -8 17 -8 22 2 22 7 1 2 7 -11 14 -17 9 -20 15 -10 18 12 4 12 8 -1 24
-14 17 -14 18 2 6 15 -12 18 -10 23 15 4 15 8 33 10 39 2 7 -4 22 -12 34 l-16
22 27 -17 c14 -9 23 -22 19 -28 -4 -6 -1 -7 6 -2 9 5 7 13 -10 31 -12 13 -19
27 -16 31 4 3 7 1 7 -5 0 -7 4 -12 9 -12 5 0 7 10 4 23 -4 18 -3 19 7 7 10
-12 11 -11 7 8 -4 16 -2 22 7 19 7 -3 18 4 25 15 10 16 10 18 0 12 -9 -5 -10
-2 -5 12 5 10 9 24 9 31 0 7 4 10 8 7 5 -2 6 -12 3 -22 -5 -14 -4 -15 5 -2 9
12 11 13 11 1 0 -8 3 -11 6 -8 4 4 -1 18 -10 32 -12 18 -13 24 -4 23 7 -2 12
3 10 11 -3 12 -1 12 15 0 10 -8 22 -18 26 -24 4 -5 5 3 1 19 -5 21 -4 27 5 22
6 -4 11 -3 11 3 0 5 -3 11 -7 14 -5 2 -2 2 6 0 8 -2 11 2 7 12 -3 9 -2 13 3
10 6 -3 14 3 20 12 7 12 10 13 11 4 0 -11 3 -11 14 -1 8 6 12 19 10 28 -5 15
-4 15 6 0 6 -10 16 -18 22 -18 6 0 7 5 2 13 -5 7 -2 6 6 -3 12 -13 18 -14 27
-5 7 7 9 16 6 19 -4 3 3 6 15 6 11 0 23 -6 26 -12 3 -7 3 3 1 22 -2 19 -2 29
1 22 3 -6 10 -10 15 -7 5 4 6 -1 2 -11 -5 -14 -3 -15 15 -5 12 6 23 7 26 2 8
-13 39 -7 42 8 1 6 0 7 -3 1 -2 -5 -9 -8 -13 -5 -5 3 -2 14 8 25 21 23 24 24
20 4z m-54 -10 c19 -19 21 -31 3 -15 -8 6 -18 7 -22 3 -5 -4 -5 -2 -2 5 4 6 1
14 -5 16 -9 4 -9 6 -1 6 6 1 19 -6 27 -15z m-114 -49 c0 -5 -5 -3 -10 5 -5 8
-10 20 -10 25 0 6 5 3 10 -5 5 -8 10 -19 10 -25z m1029 9 c-6 -8 -8 -14 -5
-14 4 0 4 -5 1 -10 -4 -6 -11 -7 -17 -4 -6 4 -6 10 1 17 15 15 14 30 -1 21 -7
-4 -8 -3 -4 4 4 6 13 9 22 5 11 -4 12 -9 3 -19z m-24 -56 c-9 -6 -19 -7 -22
-4 -4 3 -1 6 6 6 7 0 9 4 6 10 -4 6 1 7 11 3 15 -6 15 -7 -1 -15z m-25 -226
c0 -5 -7 -9 -15 -9 -8 0 -15 4 -15 9 0 4 7 8 15 8 8 0 15 -4 15 -8z m-1265
-43 c-4 -5 -12 -9 -18 -8 -9 0 -8 2 1 6 6 2 9 10 6 15 -4 7 -2 8 5 4 6 -4 9
-12 6 -17z m-5 -39 c0 -5 -2 -10 -4 -10 -3 0 -8 5 -11 10 -3 6 -1 10 4 10 6 0
11 -4 11 -10z m-192 -1685 c-3 -3 -9 2 -12 12 -6 14 -5 15 5 6 7 -7 10 -15 7
-18z m241 8 c7 -15 5 -18 -14 -19 -13 -1 -26 5 -30 14 -4 12 -3 13 10 2 14
-11 19 -7 16 13 -2 13 8 7 18 -10z m1238 4 c0 -8 -6 -14 -14 -14 -9 0 -10 4
-2 14 6 7 12 13 14 13 1 0 2 -6 2 -13z m677 -3 c3 -8 2 -12 -4 -9 -6 3 -10 10
-10 16 0 14 7 11 14 -7z m36 -6 c0 -6 -6 -5 -15 2 -8 7 -15 14 -15 16 0 2 7 1
15 -2 8 -4 15 -11 15 -16z m-2016 1 c-2 -4 2 -9 8 -12 7 -3 4 -5 -8 -4 -22 1
-30 24 -8 24 7 0 11 -4 8 -8z m132 1 c8 7 13 7 17 -2 3 -8 -4 -14 -19 -14 -13
-1 -25 5 -29 15 -5 13 -4 13 6 4 9 -9 16 -9 25 -3z m167 -3 c3 -8 -1 -14 -8
-14 -7 0 -11 6 -8 14 3 7 6 13 8 13 2 0 5 -6 8 -13z m161 1 c-3 -4 -11 -5 -19
-1 -21 7 -19 12 4 10 11 0 18 -5 15 -9z m96 6 c0 -8 -19 -13 -24 -6 -3 5 1 9
9 9 8 0 15 -2 15 -3z m310 -4 c0 -5 -2 -10 -4 -10 -3 0 -8 5 -11 10 -3 6 -1
10 4 10 6 0 11 -4 11 -10z m60 6 c0 -3 -4 -8 -10 -11 -5 -3 -10 -1 -10 4 0 6
5 11 10 11 6 0 10 -2 10 -4z m490 -6 c0 -5 -2 -10 -4 -10 -3 0 -8 5 -11 10 -3
6 -1 10 4 10 6 0 11 -4 11 -10z m391 -13 c-7 -7 -14 -8 -21 -1 -6 6 -2 10 12
11 16 2 18 -1 9 -10z"/>
<path d="M1773 5855 c-3 -9 -3 -19 1 -22 3 -4 6 2 6 12 0 15 2 16 18 4 15 -13
16 -12 3 4 -17 21 -20 21 -28 2z"/>
<path d="M1730 5829 c-7 -11 -9 -23 -7 -26 3 -2 8 5 12 18 6 17 9 19 16 8 6
-9 9 -10 9 -2 0 22 -19 24 -30 2z"/>
<path d="M1655 5771 c-3 -5 -2 -12 3 -15 5 -3 9 1 9 9 0 17 -3 19 -12 6z"/>
<path d="M1556 5497 c3 -10 9 -15 12 -12 3 3 0 11 -7 18 -10 9 -11 8 -5 -6z"/>
<path d="M1533 5385 c0 -8 4 -12 9 -9 4 3 8 9 8 15 0 5 -4 9 -8 9 -5 0 -9 -7
-9 -15z"/>
<path d="M1547 5309 c7 -7 15 -10 18 -7 3 3 -2 9 -12 12 -14 6 -15 5 -6 -5z"/>
<path d="M886 5475 c3 -874 7 -1596 10 -1604 2 -7 11 -10 19 -7 8 3 15 1 15
-5 0 -6 4 -8 9 -5 5 3 15 -2 22 -11 10 -12 10 -14 2 -9 -8 4 -13 2 -13 -4 0
-7 6 -10 14 -7 7 3 18 1 24 -5 6 -6 12 -6 17 3 5 7 4 10 -2 6 -6 -4 -14 0 -17
9 -8 21 -7 31 2 18 4 -6 20 -14 36 -18 25 -6 28 -5 18 7 -9 11 -8 14 3 14 8 0
12 -4 9 -9 -3 -4 0 -8 7 -8 9 0 9 -3 0 -14 -9 -11 -9 -16 1 -22 7 -4 10 -4 6
1 -4 4 -3 14 3 21 6 8 9 20 6 28 -3 8 0 19 7 25 9 8 13 7 13 -4 0 -8 -5 -11
-10 -8 -6 3 -7 1 -3 -6 10 -16 25 -5 21 17 -2 9 -4 20 -4 24 -1 4 -9 5 -18 1
-15 -5 -15 -3 2 11 11 10 15 15 8 12 -7 -4 -9 1 -6 13 3 13 11 18 21 14 14 -4
15 -3 2 5 -10 8 -18 8 -27 0 -10 -8 -12 -7 -7 6 3 9 10 16 16 16 5 0 6 5 3 10
-4 6 -12 7 -18 3 -7 -4 -6 0 2 10 7 9 11 26 8 38 -4 13 -1 19 6 16 9 -3 12 18
12 79 0 63 -3 84 -13 84 -8 0 -10 -5 -5 -12 14 -23 13 -40 -2 -28 -15 12 -14
38 2 48 7 5 7 15 0 32 -16 39 -16 47 -1 47 7 0 10 -5 7 -11 -3 -6 -2 -7 2 -3
17 15 13 40 -8 59 -12 11 -17 17 -11 14 15 -8 26 21 12 30 -7 5 -8 2 -3 -6 5
-9 4 -11 -4 -6 -6 4 -9 12 -5 17 3 5 10 7 15 4 5 -4 9 1 9 9 0 10 -6 13 -17 9
-16 -5 -15 -4 1 9 15 12 16 17 6 23 -9 6 -11 4 -5 -5 5 -9 4 -11 -4 -6 -6 4
-9 12 -5 17 3 5 10 7 15 4 5 -4 9 -2 9 4 0 5 -8 15 -17 20 -12 7 -14 10 -4 11
11 0 11 3 1 15 -7 9 -10 18 -6 22 3 3 6 1 6 -6 0 -7 5 -9 12 -5 7 5 8 2 3 -7
-5 -8 -4 -10 0 -6 11 9 16 39 7 33 -4 -2 -14 3 -22 12 -13 14 -12 15 2 10 10
-4 19 -1 22 8 3 9 1 12 -4 9 -6 -3 -10 -1 -10 5 0 6 -4 8 -10 5 -6 -3 -7 1 -3
10 4 12 8 13 13 5 5 -8 9 -7 13 5 4 9 3 13 -3 10 -6 -3 -10 -1 -10 5 0 6 -5 8
-12 4 -7 -5 -8 -3 -4 5 5 7 14 10 20 8 7 -3 13 1 13 9 0 7 -5 10 -10 7 -6 -4
-8 0 -4 10 3 9 1 19 -5 23 -7 5 -8 2 -3 -6 5 -9 4 -11 -4 -6 -6 4 -9 12 -5 17
3 5 10 7 15 4 17 -11 9 14 -8 25 -14 9 -14 10 -2 7 13 -4 15 0 11 21 -5 25 -4
26 14 12 18 -14 18 -14 5 2 -7 10 -17 16 -21 13 -13 -8 -20 9 -9 25 6 11 9 12
9 2 0 -7 5 -10 11 -6 8 4 3 12 -12 21 -13 8 -17 12 -9 10 11 -3 15 5 16 34 0
21 -2 37 -5 36 -4 -1 -7 3 -8 8 -2 6 1 10 6 10 5 0 13 4 18 9 4 5 4 7 -2 4 -5
-3 -17 1 -25 10 -13 14 -12 15 2 9 9 -3 22 0 28 8 10 11 7 13 -15 9 l-27 -5
29 26 c15 14 21 24 13 23 -10 -2 -14 8 -14 37 0 23 -7 45 -15 51 -11 9 -11 13
-1 19 9 6 9 9 0 15 -9 5 -8 9 2 13 17 6 20 -24 4 -36 -7 -6 -6 -7 4 -4 10 2
14 14 12 33 -1 16 -4 39 -4 52 -1 12 -6 22 -10 22 -5 0 -6 -13 -3 -30 3 -16 2
-30 -3 -30 -4 0 -8 18 -8 40 0 35 2 39 19 34 17 -5 18 -4 6 9 -8 8 -18 12 -23
9 -5 -3 -6 0 -2 6 4 6 14 8 23 5 11 -4 14 -2 11 8 -3 8 -12 13 -20 11 -8 -1
-15 4 -15 12 0 8 6 12 12 9 9 -3 11 4 8 21 -3 14 -9 24 -13 21 -11 -7 -6 22 5
32 4 4 5 2 1 -4 -9 -16 20 -18 29 -3 4 6 1 9 -7 8 -7 -2 -12 2 -11 9 2 7 -4
10 -15 7 -14 -5 -14 -3 2 10 15 12 16 16 5 16 -10 0 -15 10 -14 29 0 20 4 27
14 23 9 -4 12 -1 7 7 -4 6 -2 19 6 28 9 12 9 15 1 9 -9 -5 -13 0 -13 18 0 14
5 28 10 31 8 5 7 11 -1 21 -9 11 -8 14 2 15 8 0 4 5 -8 11 -13 6 -23 15 -23
20 0 5 5 6 10 3 6 -3 10 2 10 12 0 15 2 16 10 3 5 -8 10 -10 10 -4 0 18 -12
24 -26 13 -9 -7 -12 -6 -10 5 1 9 6 19 11 23 4 4 5 2 1 -4 -5 -9 -2 -11 10 -6
16 6 16 7 -3 16 -29 13 -28 69 2 61 15 -4 16 -3 6 4 -8 6 -11 16 -8 24 3 8 1
21 -5 29 -8 11 -9 11 -4 -3 3 -10 2 -19 -2 -22 -18 -11 -9 35 9 47 10 8 16 17
12 20 -10 11 -25 8 -18 -3 3 -5 2 -10 -4 -10 -5 0 -9 9 -8 20 1 11 6 19 12 16
13 -5 11 54 -2 63 -5 3 -10 17 -11 31 -1 18 1 21 8 10 5 -8 6 -19 2 -25 -3 -5
2 -4 11 4 17 13 24 26 9 17 -4 -2 -12 7 -19 20 -6 13 -7 22 -2 18 14 -8 11 19
-5 42 -13 17 -13 21 -1 21 8 0 12 -4 9 -8 -2 -4 1 -11 7 -15 8 -4 9 -3 5 4 -4
7 -1 12 6 12 7 1 2 7 -11 14 -14 8 -19 15 -12 17 9 3 10 11 2 32 -7 18 -7 26
-1 22 14 -9 13 8 -2 23 -8 8 -8 15 2 27 8 10 9 15 1 15 -6 0 -11 5 -11 11 0 6
6 9 13 6 8 -3 14 1 14 9 0 7 -4 11 -8 8 -4 -2 -10 0 -13 5 -4 5 3 12 14 16 11
3 20 11 20 16 0 6 -4 8 -9 5 -5 -3 -13 0 -18 7 -12 15 -14 55 -4 62 5 2 7 -10
5 -28 -3 -22 -1 -28 5 -17 6 8 7 18 4 22 -2 5 1 16 9 25 11 14 11 16 -1 8 -11
-6 -13 -4 -8 8 4 10 0 20 -11 26 -16 10 -15 10 2 11 14 0 16 3 7 14 -6 7 -9
21 -5 30 3 9 1 16 -5 16 -6 0 -11 5 -11 11 0 5 4 8 9 4 5 -3 13 -1 16 5 4 6 1
9 -6 8 -7 -2 -14 7 -15 19 -1 12 3 20 7 17 5 -3 9 0 9 5 0 6 -4 11 -10 11 -11
0 -9 28 3 48 5 6 4 12 -1 12 -5 0 -9 7 -9 15 0 11 4 12 13 4 9 -8 11 -5 7 11
-3 13 -11 19 -19 16 -8 -3 -14 -1 -14 4 0 6 7 10 15 10 8 0 15 5 15 11 0 5 -4
8 -8 5 -5 -3 -9 0 -9 7 0 7 -4 21 -7 32 -5 13 -2 12 8 -5 10 -16 15 -20 16 -9
0 8 -7 24 -15 35 -24 32 -17 37 11 7 15 -15 21 -20 14 -11 -6 9 -9 22 -6 27 4
5 -2 14 -11 20 -10 6 -12 11 -5 11 6 0 12 5 12 11 0 6 -7 9 -15 5 -8 -3 -15
-1 -15 4 0 6 7 10 15 10 8 0 15 5 15 11 0 5 -4 8 -8 5 -5 -3 -9 0 -9 7 0 7 -4
21 -7 32 -5 13 -2 12 7 -5 l15 -24 0 36 c0 20 3 41 6 47 4 5 1 13 -5 17 -7 4
-10 3 -7 -2 3 -5 2 -18 -3 -29 -6 -16 -7 -14 -6 10 1 17 8 35 17 42 13 10 12
11 -5 10 -15 -2 -20 4 -20 25 0 15 -4 30 -7 34 -4 3 -45 7 -92 8 l-85 1 5
-1590z m204 921 c0 -3 -4 -8 -10 -11 -5 -3 -10 -1 -10 4 0 6 5 11 10 11 6 0
10 -2 10 -4z m-5 -114 c-3 -3 -11 0 -18 7 -9 10 -8 11 6 5 10 -3 15 -9 12 -12z
m5 -366 c0 -3 -4 -8 -10 -11 -5 -3 -10 -1 -10 4 0 6 5 11 10 11 6 0 10 -2 10
-4z m-3 -313 c-4 -3 -2 -12 3 -18 7 -9 6 -16 -3 -24 -11 -9 -13 -6 -11 17 3
33 2 32 11 32 3 0 3 -3 0 -7z m-1 -539 c1 -9 0 -13 -4 -10 -3 4 -7 14 -8 22
-1 9 0 13 4 10 3 -4 7 -14 8 -22z m8 -65 c-3 -5 -10 -7 -15 -3 -5 3 -7 10 -3
15 3 5 10 7 15 3 5 -3 7 -10 3 -15z m1 -677 c-3 -3 -11 0 -18 7 -9 10 -8 11 6
5 10 -3 15 -9 12 -12z m1 -196 c0 -28 -3 -33 -13 -24 -9 7 -10 15 -3 23 6 8 6
15 -2 23 -9 9 -9 12 3 12 10 0 15 -11 15 -34z m1 -52 c-3 -3 -12 -4 -19 -1 -8
3 -5 6 6 6 11 1 17 -2 13 -5z"/>
<path d="M184 7048 c-3 -4 -9 -6 -13 -4 -12 8 -80 -52 -99 -87 -16 -30 -17
-100 -14 -1037 5 -1429 9 -1901 17 -1936 4 -17 18 -43 31 -57 25 -28 32 -43
12 -31 -7 4 -8 3 -4 -4 4 -6 14 -8 23 -5 12 5 15 2 10 -10 -6 -15 -3 -16 13
-7 14 8 20 8 20 0 0 -6 5 -8 12 -4 7 4 8 3 4 -4 -4 -6 -14 -8 -24 -5 -9 3 -14
3 -10 -1 3 -4 14 -9 23 -10 9 -1 21 -9 26 -17 8 -10 9 -7 4 11 -3 14 -3 21 2
15 13 -16 35 -17 45 -3 6 9 7 4 3 -12 l-6 -25 20 24 c23 26 27 21 10 -12 l-12
-22 22 20 c16 14 22 15 19 5 -2 -9 3 -13 12 -11 8 3 25 5 36 5 13 1 20 6 17
13 -3 7 -9 11 -13 8 -5 -3 -12 -1 -15 5 -4 6 -1 9 6 8 7 -2 13 3 14 10 0 7 7
17 15 22 13 8 12 10 -3 10 -10 0 -15 5 -12 10 4 6 12 8 18 4 7 -3 3 2 -8 12
-20 16 -20 16 3 11 19 -4 21 -3 11 9 -6 7 -16 11 -23 7 -6 -3 -8 -3 -4 2 4 4
2 15 -5 23 -9 13 -9 14 0 8 8 -4 13 -2 13 4 0 6 6 8 13 4 6 -4 3 2 -7 15 -16
17 -17 24 -7 34 10 9 11 8 6 -6 -5 -10 -2 -17 6 -17 7 0 9 3 6 7 -4 3 -1 13 6
21 9 13 9 14 -1 8 -16 -9 -16 6 0 24 7 8 3 6 -8 -3 -21 -18 -22 -18 -20 12 0
16 4 27 9 24 4 -2 5 -9 2 -14 -3 -5 1 -6 10 -2 10 3 12 8 6 12 -5 4 -12 19
-15 34 -2 14 -8 32 -12 39 -6 11 -5 11 8 0 13 -10 18 -9 29 5 13 16 12 17 -4
4 -15 -12 -17 -11 -14 5 1 11 6 24 9 30 4 6 1 11 -7 11 -7 0 -12 -8 -10 -19 2
-10 0 -18 -4 -18 -5 0 -8 15 -7 34 1 25 4 32 13 25 7 -7 14 -6 19 2 5 8 3 9
-6 4 -9 -5 -11 -1 -6 16 3 13 3 18 0 12 -3 -7 -9 -13 -12 -13 -10 0 -7 221 3
244 5 12 5 17 -2 13 -5 -3 -10 0 -10 9 0 10 7 12 21 8 15 -4 17 -3 7 4 -8 6
-10 15 -5 23 6 12 5 12 -9 1 -14 -12 -16 -11 -14 6 0 11 6 18 13 15 7 -2 15 1
20 8 4 8 3 10 -4 5 -16 -10 -15 6 1 24 6 8 2 6 -10 -4 -29 -24 -30 -7 -3 22
21 23 14 32 -8 10 -7 -7 -12 -8 -12 -2 0 6 5 15 12 22 9 9 9 12 -2 12 -7 0
-10 3 -7 7 4 3 1 13 -6 21 -6 9 -7 13 -2 10 6 -3 19 6 29 20 11 14 15 23 10
19 -6 -3 -16 -2 -24 4 -12 7 -11 9 5 9 18 1 18 2 -3 11 -13 5 -20 13 -17 19 4
6 12 7 24 1 13 -7 18 -6 18 5 0 7 -2 12 -5 9 -9 -8 -43 16 -36 26 4 7 10 7 18
0 8 -7 12 -5 12 8 0 10 -5 18 -11 17 -5 -1 -11 4 -12 9 -1 6 8 9 20 8 l22 -3
-23 12 c-24 12 -31 34 -8 25 10 -4 13 -1 9 9 -3 7 1 14 8 14 7 0 9 3 6 6 -4 4
-13 1 -22 -6 -9 -7 -18 -10 -22 -6 -3 3 -1 6 5 6 7 0 12 5 12 11 0 5 -5 7 -12
3 -7 -4 -8 -3 -4 4 4 6 13 9 20 6 8 -3 17 0 22 7 4 7 3 10 -3 6 -6 -4 -19 0
-29 8 -18 13 -18 14 6 8 22 -5 23 -4 9 8 -19 16 -34 54 -18 44 6 -4 17 1 24
11 13 17 12 21 -13 41 l-26 22 24 -6 c24 -5 24 -5 5 10 -20 15 -20 16 4 36 13
12 20 21 15 21 -6 0 -16 -6 -23 -12 -11 -11 -13 -10 -8 4 3 9 3 19 -1 21 -4 2
-2 2 5 1 6 -2 14 3 17 11 3 9 0 12 -10 8 -10 -4 -12 0 -8 11 3 9 11 13 17 9 6
-4 7 -1 3 6 -5 7 -13 10 -20 8 -13 -5 -14 31 -2 52 5 8 3 17 -5 22 -9 5 -10 9
-2 9 6 0 9 9 6 20 -3 11 -1 20 4 20 6 0 9 -11 8 -24 -2 -18 1 -23 12 -19 12 5
12 7 2 14 -8 4 -10 11 -6 15 9 9 -13 35 -24 28 -5 -3 -9 0 -9 6 0 6 6 10 14 8
8 -2 14 2 13 7 -1 6 -5 9 -8 8 -4 -1 -4 7 -1 19 4 15 2 19 -7 14 -10 -6 -9 -3
0 12 7 12 17 18 23 15 5 -4 6 -1 2 6 -5 7 -14 10 -22 7 -12 -4 -12 -2 -4 14 6
11 7 20 3 20 -4 0 -2 5 5 12 16 16 15 33 -1 19 -10 -8 -14 -7 -14 4 0 8 5 11
10 8 6 -4 8 0 4 9 -3 9 0 21 6 28 9 10 9 12 -3 8 -10 -4 -15 1 -15 17 0 13 3
21 8 18 10 -6 9 5 -4 29 -6 12 -7 18 -1 14 5 -3 15 1 22 9 11 13 10 14 -5 8
-18 -6 -18 -5 -2 17 9 14 17 29 17 35 -1 5 -7 -1 -14 -14 -8 -15 -16 -20 -20
-12 -4 6 -2 11 5 11 7 0 9 3 6 7 -4 3 -1 13 6 21 10 13 9 15 -3 10 -11 -4 -16
0 -16 13 0 13 4 15 12 8 8 -7 15 -6 20 2 4 8 3 9 -4 5 -7 -4 -10 3 -7 23 2 20
-2 31 -12 35 -14 6 -14 8 1 24 19 22 21 39 3 23 -10 -8 -14 -7 -14 4 0 8 4 12
8 9 4 -2 10 0 14 6 3 5 2 10 -4 10 -6 0 -7 7 -4 17 5 12 3 14 -8 8 -11 -7 -11
-5 1 10 18 22 24 91 6 76 -8 -6 -11 -2 -11 14 0 18 3 21 13 13 9 -8 11 -7 6 7
-6 14 -4 16 6 10 9 -5 11 -4 6 4 -4 6 -12 8 -18 5 -8 -5 -9 -1 -4 12 14 36 16
56 3 51 -8 -3 -12 8 -12 34 -1 22 3 39 8 39 5 0 7 -7 3 -15 -3 -8 -1 -15 4
-15 17 0 11 39 -7 49 -10 5 -15 13 -11 17 4 4 15 1 24 -7 16 -13 16 -12 5 9
-7 13 -17 20 -24 16 -9 -5 -8 -3 1 7 13 14 17 33 4 25 -4 -2 -7 15 -7 39 0 30
4 41 13 38 10 -4 10 -8 0 -22 -12 -14 -11 -15 5 -2 16 13 16 15 1 33 -20 21
-27 65 -13 73 5 3 6 0 3 -8 -8 -23 12 -29 27 -9 13 15 12 16 -3 3 -21 -15 -24
-2 -5 18 9 11 9 13 0 7 -9 -5 -12 0 -10 16 1 16 -3 22 -13 20 -8 -1 -2 9 13
23 29 26 28 32 -2 16 -14 -8 -17 -5 -17 14 0 21 3 22 21 13 16 -9 18 -9 10 3
-6 8 -10 23 -10 34 0 11 -6 23 -15 27 -12 5 -11 7 5 7 18 1 18 2 -3 17 -18 12
-21 19 -11 30 6 8 9 23 6 33 -3 14 -1 18 9 14 18 -7 18 -22 -2 -44 -14 -16
-14 -18 6 -24 12 -4 24 -4 27 -1 4 3 -1 6 -10 6 -20 0 -22 11 -6 27 7 7 8 19
4 30 -13 29 -14 43 -4 49 5 3 9 10 9 17 0 6 -6 2 -14 -8 -8 -11 -12 -24 -8
-30 3 -5 -2 -4 -11 4 -19 15 -23 26 -7 16 7 -4 9 3 6 19 -3 17 -1 23 9 20 9
-4 12 5 10 35 -2 28 1 39 9 34 7 -4 7 -2 -1 7 -9 10 -8 18 5 38 9 15 12 23 5
19 -6 -4 -14 -3 -18 2 -3 6 -11 8 -19 5 -7 -3 -13 2 -13 10 0 8 6 12 15 8 9
-3 6 4 -7 17 -19 19 -31 22 -97 20 -41 -1 -77 -6 -80 -11z m199 -80 c-5 -7 -9
-30 -8 -50 2 -44 2 -44 -16 -21 -8 9 -9 14 -3 10 7 -4 10 8 9 36 -2 49 3 63
18 48 7 -7 7 -14 0 -23z m-5 -323 c-3 -3 -9 2 -12 12 -6 14 -5 15 5 6 7 -7 10
-15 7 -18z m2 -109 c0 -3 -4 -8 -10 -11 -5 -3 -10 -1 -10 4 0 6 5 11 10 11 6
0 10 -2 10 -4z m-4 -501 c-1 -8 -5 -17 -8 -21 -5 -4 -4 16 1 34 3 9 9 -1 7
-13z m2 -190 c-3 -3 -9 2 -12 12 -6 14 -5 15 5 6 7 -7 10 -15 7 -18z m14 -757
c-12 -12 -35 -1 -27 12 3 5 13 6 21 3 10 -4 12 -9 6 -15z m-53 -1242 c9 -10 8
-15 -2 -19 -8 -3 -13 3 -13 14 0 23 0 23 15 5z"/>
<path d="M530 7043 c-2 -154 4 -2058 10 -3137 0 -43 2 -48 19 -43 16 4 19 0
15 -22 l-5 -26 17 24 17 23 24 -26 c19 -21 28 -24 38 -16 10 8 16 7 25 -7 11
-16 11 -17 6 0 -5 15 -1 16 26 12 18 -4 30 -3 26 0 -3 4 -14 8 -24 9 -10 2
-20 9 -22 17 -2 8 0 10 5 4 8 -11 43 -17 43 -7 0 2 -8 11 -17 19 -17 13 -17
13 1 11 10 -2 20 3 22 10 1 7 0 8 -3 2 -2 -5 -9 -7 -14 -4 -6 3 -5 12 3 22 11
14 10 15 -6 9 -16 -6 -17 -5 -7 7 7 9 8 17 2 20 -10 7 -9 30 2 34 16 5 19 1 7
-13 -8 -9 -8 -15 -2 -15 6 0 12 6 15 13 5 15 -11 49 -21 43 -4 -2 -8 4 -8 14
0 10 4 16 8 14 4 -3 8 0 8 6 0 6 4 8 10 5 5 -3 7 0 4 8 -3 8 -1 18 5 22 6 3
11 11 11 18 0 6 -6 2 -14 -9 -12 -16 -17 -17 -28 -6 -7 7 -8 13 -3 12 24 -5
27 1 9 16 -15 12 -16 15 -2 10 9 -2 22 3 30 12 12 15 11 16 -4 3 -19 -14 -25
-2 -7 16 7 7 5 15 -7 28 -21 20 -27 45 -12 45 6 0 8 -7 4 -15 -3 -8 -1 -15 4
-15 6 0 10 9 10 19 0 11 4 23 10 26 5 3 10 11 10 18 0 6 -6 2 -14 -9 -12 -16
-17 -17 -28 -6 -7 7 -8 13 -3 12 24 -5 27 1 9 15 -14 11 -15 15 -4 13 9 -2 17
2 18 7 1 6 -2 10 -7 10 -5 0 -13 4 -18 8 -4 5 -3 8 2 7 24 -5 27 1 9 16 -17
14 -17 15 -1 10 12 -4 17 -2 14 6 -2 7 -11 12 -18 10 -11 -3 -11 -1 -2 9 6 6
9 18 6 27 -4 9 -2 13 4 9 5 -3 10 1 10 9 0 8 -6 13 -14 10 -10 -4 -10 -1 -1
14 7 10 17 16 23 12 5 -3 4 2 -4 11 -7 9 -10 17 -5 17 4 0 -1 7 -12 16 -17 14
-17 15 -1 10 12 -4 17 -2 14 6 -2 7 -11 12 -18 10 -11 -3 -11 -1 -2 9 6 6 9
18 6 27 -4 9 -2 13 4 9 5 -3 10 1 10 9 0 9 -6 13 -16 9 -13 -5 -14 -4 -3 6 16
17 16 32 -1 23 -9 -6 -9 -4 1 7 13 14 17 33 4 25 -4 -2 -8 4 -8 15 0 18 2 18
12 4 10 -14 12 -13 17 5 3 11 2 18 -2 16 -4 -3 -13 -1 -21 5 -12 7 -11 9 4 9
20 0 20 0 0 16 -18 14 -18 15 6 10 14 -3 19 -3 12 0 -6 3 -10 10 -6 15 3 5 -5
9 -18 10 -13 0 -17 3 -10 6 6 2 9 10 5 16 -4 7 1 6 11 -2 15 -12 17 -12 14 0
-2 8 -10 20 -18 27 -13 11 -11 12 10 7 14 -4 21 -3 15 2 -15 12 -17 65 -2 56
9 -5 9 -3 1 8 -13 16 -16 71 -3 64 4 -3 10 -2 13 3 2 4 -4 9 -15 9 -10 1 -19
-3 -19 -9 0 -6 -2 -9 -5 -6 -8 8 6 39 14 33 4 -2 8 3 8 11 0 8 -6 13 -12 10
-6 -2 -12 2 -12 10 0 9 8 12 26 9 25 -5 25 -5 3 5 -15 6 -21 14 -15 22 4 7 8
32 9 56 2 35 0 41 -12 31 -17 -14 -19 -33 -2 -23 7 5 8 3 3 -5 -5 -9 -10 -10
-18 -2 -7 7 -2 21 18 47 22 29 24 34 8 26 -15 -9 -20 -8 -20 3 0 8 4 12 9 9 4
-3 8 0 8 6 0 6 5 8 12 4 7 -5 8 -3 3 6 -14 22 -15 81 -1 73 8 -4 8 -2 -1 7 -6
7 -9 19 -6 26 3 8 0 14 -5 14 -6 0 -9 -9 -7 -20 2 -12 0 -18 -6 -15 -5 4 -7
11 -4 16 4 5 0 9 -7 9 -10 0 -10 2 -1 8 7 4 11 18 9 29 -3 15 0 20 8 17 7 -3
13 2 13 10 0 8 -4 13 -9 10 -8 -5 -12 15 -8 54 1 12 -4 22 -11 22 -7 0 -5 7 7
16 10 8 14 13 8 10 -8 -4 -11 5 -9 27 2 17 -1 35 -7 38 -5 3 -2 9 7 12 10 5
14 3 9 -5 -4 -6 -3 -8 4 -5 5 4 8 16 5 28 -4 15 -8 17 -14 7 -5 -8 -7 -1 -5
17 2 17 -2 34 -8 38 -7 6 -6 7 4 4 8 -2 15 -9 15 -15 0 -5 3 -14 7 -18 4 -3 5
4 3 16 -3 13 -9 28 -14 33 -5 5 -7 16 -4 23 3 8 -1 14 -8 14 -7 0 -9 3 -6 6 4
4 12 2 20 -4 10 -8 13 -6 13 9 0 11 -5 18 -12 15 -8 -3 -11 5 -7 26 3 18 0 34
-7 38 -8 5 -7 9 5 13 11 5 14 3 9 -6 -4 -6 -3 -9 1 -4 18 16 12 47 -9 48 -20
0 -20 1 2 9 22 10 31 30 11 30 -5 0 -7 -4 -4 -10 3 -6 -1 -7 -10 -3 -10 3 -12
8 -6 12 11 7 10 29 -4 51 -8 13 -7 13 8 1 9 -7 14 -17 11 -22 -3 -5 0 -9 5 -9
15 0 14 12 -4 36 -8 12 -11 24 -8 28 3 3 1 6 -6 6 -7 0 -3 9 10 21 13 11 18
18 12 14 -8 -4 -13 0 -13 10 0 10 -5 13 -12 9 -7 -4 -8 -3 -4 5 6 8 12 9 20 2
9 -8 13 -7 13 4 0 8 -3 12 -7 10 -3 -2 -12 0 -20 6 -12 7 -10 9 8 9 12 0 22 5
22 11 0 6 -7 8 -16 5 -8 -3 -13 -2 -9 3 3 5 -1 12 -7 14 -10 4 -10 6 0 6 7 1
10 6 6 13 -5 7 -2 9 7 6 11 -4 15 2 14 22 0 16 -3 26 -6 24 -4 -2 -10 3 -13
12 -4 12 -2 15 9 10 24 -9 17 10 -7 22 -13 6 -17 11 -9 11 11 1 11 4 0 18 -10
11 -10 14 -1 9 8 -5 12 -1 12 13 0 11 -5 23 -10 26 -8 5 -8 11 -1 19 7 9 7 16
-1 24 -9 9 -8 12 4 12 11 0 15 -8 13 -29 -1 -16 1 -35 5 -41 4 -7 7 6 6 28 -1
23 -10 50 -20 60 -11 13 -14 22 -7 27 10 6 15 -1 12 -17 0 -5 3 -8 9 -8 17 0
11 18 -12 34 -12 9 -17 16 -10 16 8 0 10 5 6 12 -4 7 -3 8 5 4 6 -4 8 -13 5
-19 -4 -7 -3 -9 1 -4 11 10 14 48 3 41 -7 -5 -10 3 -7 22 0 4 -5 10 -11 14 -9
5 -9 9 -1 14 10 7 16 -6 12 -27 -1 -5 3 -6 9 -2 11 7 6 19 -17 47 -10 11 -11
18 -4 23 6 3 11 11 11 16 0 6 -5 7 -12 3 -7 -5 -8 -3 -4 5 5 7 14 10 22 7 8
-3 14 -1 14 4 0 6 -10 10 -22 11 l-23 0 23 9 c12 5 22 12 22 15 0 4 -4 4 -9 1
-9 -6 -27 31 -27 54 1 8 6 15 13 15 7 0 17 5 23 11 8 8 6 11 -4 11 -8 0 -13
-4 -10 -9 3 -4 -2 -5 -11 -1 -9 3 -13 9 -8 12 14 10 15 34 1 44 -9 6 -7 7 7 3
20 -6 20 -6 1 9 -11 8 -14 15 -8 15 14 0 12 21 -3 32 -6 5 -5 8 3 8 8 0 10 5
6 12 -15 23 -14 60 1 54 7 -2 19 1 25 9 10 12 8 13 -9 10 -11 -2 -24 1 -27 7
-4 7 -2 8 4 4 7 -4 12 -2 12 4 0 6 5 8 13 4 9 -6 9 -5 0 7 -6 8 -11 17 -10 21
1 3 -1 10 -5 14 -4 3 -5 -3 -3 -15 2 -12 0 -19 -5 -16 -15 9 -4 40 14 37 9 -2
16 2 16 8 0 6 -4 8 -10 5 -5 -3 -10 -1 -10 5 0 6 -4 9 -8 6 -5 -3 -9 1 -9 8 0
8 6 12 14 9 9 -4 11 0 7 11 -3 9 -10 13 -15 10 -5 -3 -9 9 -9 25 l0 31 -90 0
c-79 0 -90 -2 -90 -17z m204 -921 c3 -5 -1 -9 -9 -9 -8 0 -12 4 -9 9 3 4 7 8
9 8 2 0 6 -4 9 -8z m2 -909 c1 -19 -4 -30 -12 -30 -10 0 -11 4 -3 13 11 14 9
35 -6 47 -6 5 -4 7 5 4 8 -2 15 -16 16 -34z m4 -162 c0 -6 -4 -12 -8 -15 -5
-3 -9 1 -9 9 0 8 4 15 9 15 4 0 8 -4 8 -9z m-7 -156 c-3 -9 -8 -14 -10 -11 -3
3 -2 9 2 15 9 16 15 13 8 -4z m2 -55 c1 -30 -7 -32 -11 -3 -2 14 3 33 9 33 1
0 2 -13 2 -30z m0 -379 c3 -5 2 -12 -3 -15 -5 -3 -9 1 -9 9 0 17 3 19 12 6z
m15 -306 c0 -1 -6 -7 -13 -13 -10 -8 -13 -6 -13 7 0 11 6 17 13 14 7 -3 13 -6
13 -8z m-81 -306 c6 9 10 8 15 -5 4 -10 4 -15 0 -11 -4 4 -12 3 -18 -3 -8 -6
-16 -2 -26 13 -12 20 -12 21 4 8 14 -12 19 -12 25 -2z"/>
<path d="M726 6827 c1 -12 3 -24 4 -27 1 -3 1 -9 0 -15 -1 -5 2 -6 6 -2 13 13
12 56 -1 61 -7 2 -11 -4 -9 -17z"/>
<path d="M3495 6827 c-13 -10 -15 -16 -6 -21 7 -5 15 -5 18 -2 4 3 0 6 -8 6
-8 1 -3 7 11 15 14 8 20 14 14 15 -5 0 -18 -6 -29 -13z"/>
<path d="M733 6755 c0 -8 4 -15 9 -15 4 0 8 4 8 9 0 6 -4 12 -8 15 -5 3 -9 -1
-9 -9z"/>
<path d="M725 6632 c2 -9 4 -21 4 -27 1 -5 6 -3 11 5 13 20 12 27 -4 33 -9 4
-13 0 -11 -11z"/>
<path d="M1093 6593 c4 -6 2 -13 -5 -15 -8 -3 -6 -6 4 -10 17 -7 19 15 3 29
-4 4 -5 3 -2 -4z"/>
<path d="M7775 6555 c-56 -15 -98 -39 -129 -76 -47 -55 -59 -90 -65 -183 -5
-68 -10 -90 -21 -92 -8 -2 -45 -10 -81 -18 -36 -8 -79 -17 -95 -19 -25 -5 -78
-15 -150 -31 -12 -2 -39 -7 -60 -11 -22 -4 -48 -9 -59 -11 -11 -1 -33 -6 -50
-9 -74 -15 -298 -54 -304 -53 -3 0 -8 -1 -11 -2 -8 -3 -41 -8 -85 -15 -22 -3
-51 -7 -65 -10 -14 -3 -43 -7 -65 -10 -22 -3 -51 -7 -64 -10 -14 -2 -47 -7
-75 -11 -28 -3 -62 -8 -76 -10 -14 -3 -47 -7 -75 -9 -27 -3 -57 -7 -65 -10 -8
-2 -40 -7 -70 -10 -30 -3 -72 -8 -92 -10 -21 -3 -55 -7 -75 -10 -21 -2 -56 -7
-78 -9 -22 -3 -69 -8 -105 -11 -36 -3 -81 -8 -100 -10 -60 -8 -132 -15 -200
-20 -36 -3 -92 -7 -125 -10 -177 -14 -266 -20 -515 -33 -182 -9 -948 -8 -1095
1 -216 14 -353 26 -383 31 -12 3 -49 7 -81 10 -60 6 -115 13 -161 22 -14 3
-41 7 -60 9 -19 2 -54 8 -77 13 l-42 10 -20 -87 c-32 -143 -41 -218 -42 -366
-1 -117 7 -224 21 -290 5 -22 11 -53 14 -70 3 -16 12 -50 19 -75 11 -39 17
-45 39 -44 19 1 25 -3 21 -13 -5 -12 -7 -12 -14 -1 -5 7 -9 9 -9 3 0 -5 5 -17
10 -25 7 -11 10 -12 10 -2 0 8 6 12 13 9 6 -2 11 -11 9 -18 -2 -9 3 -8 16 4
22 20 37 23 26 5 -5 -9 -2 -8 10 1 12 10 14 17 6 25 -5 5 -10 15 -10 20 0 6 5
4 10 -4 8 -13 11 -12 25 5 9 11 14 14 10 7 -4 -7 3 -16 17 -21 28 -10 48 -4
48 15 0 8 4 14 10 14 5 0 7 -7 4 -15 -4 -8 -1 -15 5 -15 11 0 14 11 12 40 0
10 1 11 5 2 3 -6 11 -9 16 -6 6 4 8 2 4 -4 -6 -11 9 -25 31 -28 7 -1 9 5 6 13
-5 13 -3 14 18 3 23 -13 23 -12 9 5 -8 10 -10 16 -3 12 7 -4 17 0 23 10 9 15
10 14 4 -7 -6 -22 -5 -23 9 -12 10 9 17 10 22 2 3 -5 1 -10 -6 -10 -7 0 -10
-3 -6 -6 14 -14 27 8 16 28 -9 16 -8 19 3 12 19 -12 38 -14 38 -3 0 5 5 9 12
9 9 0 9 -3 0 -12 -15 -15 -15 -28 -1 -28 5 0 7 5 4 10 -3 6 3 10 14 10 12 0
21 7 21 16 0 9 -5 12 -12 8 -7 -4 -8 -3 -4 5 9 14 26 5 26 -15 0 -8 7 -14 16
-14 8 0 12 5 8 11 -3 6 0 15 7 20 23 15 34 10 13 -6 -10 -8 -14 -15 -7 -15 7
0 10 -8 7 -17 -3 -10 2 -5 11 10 9 15 21 25 27 21 5 -4 14 -1 18 6 5 8 9 7 13
-5 4 -9 3 -13 -2 -10 -5 3 -13 0 -17 -6 -4 -8 -9 -7 -15 2 -6 10 -9 10 -9 2 0
-16 17 -26 25 -14 3 5 14 8 25 6 11 -2 20 1 20 7 0 7 6 6 15 -2 14 -12 20 -7
16 14 -1 5 5 4 13 -4 13 -10 16 -10 16 4 0 9 5 16 11 16 6 0 8 -9 4 -22 -4
-15 -3 -19 3 -10 5 7 16 10 24 7 9 -4 19 -2 23 4 3 6 0 9 -8 5 -8 -3 -17 1
-20 9 -4 10 0 14 11 12 9 -2 18 -4 20 -5 2 -2 16 -6 29 -9 4 0 -2 -8 -13 -17
-18 -15 -17 -15 7 -1 20 12 29 13 38 4 8 -8 14 -8 23 1 14 14 32 16 23 3 -3
-5 -1 -12 4 -15 17 -11 5 24 -13 37 -16 12 -16 14 -2 14 9 0 16 -4 16 -9 0
-11 33 -6 42 7 5 6 8 5 8 -2 0 -7 8 -13 18 -13 10 0 24 -6 31 -12 11 -10 13
-10 7 0 -4 6 -2 12 3 12 6 0 11 -4 11 -8 0 -20 38 -8 49 15 9 19 15 23 23 15
6 -6 16 -8 23 -6 7 3 15 1 19 -4 6 -10 -24 -9 -42 2 -6 4 -12 2 -12 -3 0 -13
-2 -13 81 -15 47 -1 65 2 62 10 -2 6 3 14 11 17 18 7 46 -1 46 -13 0 -4 7 -10
15 -14 13 -4 14 -2 5 14 -9 16 -8 18 5 14 8 -4 15 -11 15 -17 0 -6 3 -8 6 -4
4 3 20 -1 35 -9 16 -8 28 -11 27 -7 -3 13 13 53 21 53 11 0 10 -34 -2 -41 -6
-4 -5 -9 1 -13 6 -3 13 3 17 14 3 11 11 20 16 20 6 0 7 -4 4 -10 -3 -5 -1 -10
4 -10 6 0 11 5 11 10 0 6 5 10 11 10 5 0 8 -4 4 -9 -3 -5 0 -13 6 -17 8 -4 9
-3 5 4 -9 15 -1 15 26 1 13 -7 18 -7 14 -1 -5 9 32 29 43 23 2 -2 7 3 11 9 5
9 9 9 14 1 4 -6 2 -12 -3 -12 -6 -1 -15 -3 -21 -4 -5 -1 -16 -3 -22 -4 -9 -1
-9 -4 1 -10 9 -6 22 -6 31 -1 9 5 22 5 30 0 7 -4 20 -6 28 -2 9 3 13 1 9 -5
-3 -5 0 -10 8 -10 12 0 12 4 -2 19 -16 18 -16 19 10 14 18 -3 30 1 37 12 8 14
10 14 11 2 1 -8 1 -19 0 -23 -1 -4 7 -7 16 -5 12 2 17 -2 15 -12 -3 -12 -1
-12 9 -3 9 10 10 15 0 27 -9 11 -9 16 1 22 7 4 10 4 6 -1 -9 -9 9 -35 23 -35
5 0 9 8 10 18 0 10 3 12 6 4 2 -6 10 -9 16 -5 7 4 6 -1 -2 -10 -8 -10 -11 -20
-7 -24 3 -3 6 -1 6 5 0 7 5 12 11 12 5 0 7 -4 4 -10 -3 -5 -4 -10 -1 -10 3 0
12 12 20 28 8 15 15 21 16 14 0 -7 5 -10 12 -6 7 4 8 3 4 -5 -4 -6 -12 -8 -18
-5 -7 4 -8 2 -4 -4 5 -9 13 -9 29 0 28 15 69 23 47 9 -8 -5 -18 -7 -22 -5 -15
9 -8 -3 9 -17 14 -11 15 -11 9 -1 -6 10 -3 13 10 10 11 -2 25 3 32 12 12 13
13 13 8 -2 -5 -17 20 -46 31 -34 3 3 2 6 -3 6 -5 0 -11 10 -11 22 -2 15 1 18
6 10 4 -7 20 -15 36 -18 24 -4 26 -3 16 10 -10 12 -9 14 6 12 10 -2 17 -10 15
-18 -1 -10 8 -14 35 -14 27 1 37 -3 35 -12 -1 -8 2 -11 8 -7 6 3 8 11 5 16 -9
13 9 11 25 -3 12 -11 12 -10 2 4 -10 12 -10 18 -1 24 8 4 9 3 5 -4 -4 -8 3
-10 24 -7 27 3 34 -3 32 -26 -1 -3 5 -6 12 -6 7 0 13 6 13 13 0 7 -3 11 -7 9
-4 -2 -7 2 -7 10 0 11 4 12 14 4 9 -8 13 -8 13 0 0 6 4 11 8 11 5 0 9 -7 9
-15 0 -8 -4 -12 -9 -9 -4 3 -8 0 -8 -6 0 -7 7 -9 16 -6 10 4 22 -1 30 -11 13
-17 14 -17 8 0 -4 12 -1 17 11 17 10 0 13 -4 9 -12 -6 -10 -5 -10 8 -1 8 7 17
12 19 10 2 -1 -2 4 -10 11 -9 7 -10 12 -3 12 6 0 17 -8 24 -18 8 -11 24 -18
41 -17 15 1 27 -3 27 -9 0 -7 3 -7 8 -1 4 6 16 17 26 25 15 11 18 11 12 1 -7
-10 -3 -12 13 -6 13 4 21 2 21 -5 0 -6 -4 -9 -8 -6 -5 3 -9 -1 -9 -9 0 -8 5
-11 11 -7 20 12 67 11 59 -1 -4 -8 -1 -7 9 1 13 10 17 10 20 0 3 -8 6 -7 11 4
4 12 1 16 -13 13 -11 -2 -22 0 -24 4 -8 12 37 7 59 -8 11 -7 13 -10 5 -8 -10
3 -16 -2 -17 -14 -2 -16 0 -17 12 -5 8 7 27 12 44 10 17 -2 33 1 36 6 3 6 11
10 17 10 6 0 3 -9 -8 -21 l-19 -21 32 18 c17 10 29 23 26 28 -3 5 -1 6 6 2 9
-6 9 -11 1 -21 -8 -10 -8 -15 1 -21 8 -4 9 -3 5 4 -4 7 -4 13 1 13 4 1 17 3
28 4 11 2 29 6 40 9 15 5 15 4 -2 -5 -28 -15 -29 -25 -4 -25 11 0 17 4 15 8
-3 4 0 8 5 8 6 0 11 -4 11 -10 0 -5 4 -10 10 -10 5 0 7 7 4 15 -5 11 -2 13 10
9 10 -4 15 -12 12 -20 -6 -17 34 -10 45 8 7 10 11 10 21 -1 11 -12 10 -12 -2
-6 -13 8 -13 6 -2 -7 13 -17 28 -18 49 -5 14 9 27 -9 17 -25 -5 -7 -3 -8 5 -4
7 5 10 14 7 22 -4 9 2 14 15 14 13 0 18 4 13 13 -4 6 2 3 14 -7 18 -16 20 -22
9 -35 -10 -14 -10 -14 4 -4 9 7 19 9 24 5 4 -4 2 4 -5 18 -12 22 -11 24 2 13
8 -7 19 -9 23 -5 5 4 6 3 3 -3 -3 -5 1 -17 10 -25 14 -13 15 -12 10 2 -4 10
-1 19 7 22 9 3 12 0 8 -10 -4 -10 0 -12 13 -8 11 4 24 11 30 16 13 10 27 -17
18 -35 -3 -7 0 -5 8 4 15 18 51 22 41 5 -4 -6 1 -5 10 3 17 13 21 8 19 -19 0
-3 8 -7 19 -7 10 -1 19 3 19 8 0 6 -4 8 -9 4 -5 -3 -12 -1 -15 4 -4 5 2 8 11
6 10 -1 24 3 32 9 11 8 13 8 7 -1 -4 -8 -2 -13 5 -13 10 0 10 -3 1 -12 -7 -7
-12 -17 -12 -22 0 -6 5 -3 11 7 9 15 13 16 27 5 15 -12 15 -11 0 14 l-17 26
29 -15 c17 -8 30 -17 30 -19 0 -3 -5 -2 -12 2 -7 4 -8 3 -4 -5 6 -9 11 -9 23
1 18 15 45 20 37 7 -3 -5 -11 -6 -17 -2 -7 4 -5 -2 3 -13 22 -29 24 -30 17
-11 -4 9 -4 17 0 17 3 0 12 -8 19 -17 12 -17 12 -17 11 2 -1 11 -6 23 -12 27
-6 5 -6 8 2 8 6 0 15 -5 18 -10 3 -6 17 -8 30 -6 15 3 24 0 22 -7 -1 -6 8 -13
21 -15 12 -2 22 -7 22 -11 0 -4 6 -8 14 -8 8 0 12 6 9 14 -3 7 -8 11 -12 9 -3
-2 -15 0 -26 5 -18 7 -17 8 5 6 14 -1 30 -6 37 -10 6 -4 14 -1 17 5 3 7 3 2
-1 -12 -5 -22 -4 -23 11 -11 9 7 16 10 16 5 0 -5 5 -2 10 6 7 10 10 11 10 2 0
-7 -7 -15 -15 -18 -19 -8 -19 -21 0 -21 8 0 12 4 9 9 -8 12 10 10 24 -4 9 -9
12 -9 12 1 0 11 3 11 17 0 11 -10 14 -10 9 -1 -4 7 -1 12 9 12 10 0 13 5 9 13
-5 6 7 0 25 -16 18 -15 37 -25 42 -21 5 3 9 1 9 -3 0 -5 11 -9 24 -9 14 0 22
4 20 8 -3 5 -10 5 -16 2 -6 -4 -8 -3 -5 3 4 6 -4 9 -19 7 -14 -1 -23 1 -19 4
9 9 65 10 60 1 -3 -3 12 -6 33 -5 34 1 37 -1 34 -24 -1 -17 1 -21 6 -12 10 14
32 13 45 -3 5 -6 7 -4 4 5 -2 8 -9 15 -15 15 -5 0 -13 2 -16 6 -3 3 5 5 19 5
13 0 23 -2 23 -5 0 -4 0 -15 1 -26 2 -19 3 -18 11 3 11 26 25 29 34 6 5 -13 3
-14 -7 -6 -10 8 -13 6 -14 -11 -2 -15 0 -18 6 -9 5 8 11 13 15 13 21 -3 27 1
22 15 -3 8 -2 12 4 9 14 -9 12 -32 -2 -38 -7 -2 -1 -4 14 -3 20 1 24 4 16 14
-6 7 -8 15 -4 19 3 3 6 1 6 -5 0 -7 5 -12 11 -12 5 0 7 6 4 13 -4 6 6 -1 20
-18 15 -17 25 -22 22 -13 -4 10 -1 20 5 24 7 5 8 2 3 -6 -5 -9 -2 -10 14 -5
12 4 21 2 21 -4 0 -6 -5 -10 -11 -9 -6 2 -14 -4 -16 -12 -4 -12 -3 -12 5 -1 7
9 12 10 16 2 4 -6 13 -11 19 -11 7 0 6 4 -3 10 -13 8 -13 10 2 10 9 0 19 -8
21 -17 4 -14 5 -12 6 5 1 24 9 27 31 11 13 -9 12 -10 -2 -5 -11 3 -15 1 -12
-8 6 -14 55 -9 65 7 4 5 9 5 13 -2 4 -6 2 -11 -3 -11 -6 0 -11 -5 -11 -11 0
-6 6 -9 14 -6 7 3 20 0 27 -6 11 -10 11 -9 1 5 -10 12 -10 18 -1 24 8 5 9 3 4
-6 -6 -10 -4 -12 9 -7 14 6 16 3 11 -14 -7 -21 -7 -21 15 1 16 16 25 19 34 10
8 -5 22 -8 32 -4 16 5 16 4 4 -5 -10 -7 -11 -11 -2 -11 6 0 11 -3 11 -7 -3
-20 2 -24 16 -13 8 7 15 9 15 5 0 -4 6 -2 14 4 11 9 17 8 29 -4 9 -8 22 -15
29 -15 10 0 15 -19 17 -67 5 -104 5 -111 13 -107 4 3 10 -7 14 -21 3 -14 10
-25 16 -25 5 0 7 -4 4 -8 -2 -4 9 -18 25 -31 23 -19 27 -26 17 -33 -10 -7 -10
-9 2 -5 15 4 70 -18 70 -29 0 -3 -6 -2 -12 2 -10 6 -10 4 0 -8 14 -18 56 -13
45 6 -4 7 -1 6 9 -1 8 -7 18 -10 22 -6 4 4 2 -6 -4 -22 -10 -30 -10 -30 7 -8
18 21 73 30 73 11 0 -5 -4 -7 -9 -3 -5 3 -13 0 -17 -6 -5 -8 -3 -9 6 -4 10 6
12 3 7 -11 -7 -18 -6 -18 7 -1 9 12 16 14 21 8 3 -6 11 -11 16 -11 6 0 3 7 -5
16 -27 26 -18 35 10 9 25 -24 44 -25 44 -4 0 5 -7 9 -16 7 -10 -2 -18 3 -20
10 -1 7 0 8 2 4 4 -8 47 -8 71 0 4 2 9 -1 10 -7 1 -5 -8 -9 -20 -8 -21 3 -21
2 -2 -6 12 -6 14 -10 6 -10 -8 -1 -12 -3 -9 -7 9 -8 69 32 60 41 -4 5 -1 5 6
1 10 -6 10 -11 1 -22 -6 -8 -9 -17 -5 -21 3 -3 6 -1 6 5 0 15 72 13 82 -2 5
-8 8 -7 8 2 0 9 25 12 90 12 65 0 90 -3 90 -12 0 -8 3 -9 8 -3 10 15 32 17 32
3 0 -6 3 -9 6 -6 3 4 0 17 -7 30 -11 20 -10 21 3 11 8 -7 19 -9 23 -5 5 4 5 1
1 -5 -4 -8 -1 -13 9 -13 9 0 13 -4 10 -10 -3 -5 -1 -10 4 -10 6 0 11 5 11 11
0 8 4 8 14 0 10 -8 16 -9 21 -1 3 5 11 10 16 10 6 0 7 -5 3 -12 -4 -7 -3 -8 4
-4 12 7 5 36 -9 36 -5 0 -9 5 -9 12 0 7 7 5 18 -5 25 -23 27 -23 45 -9 12 10
17 10 23 1 4 -7 3 -9 -4 -5 -6 3 -13 2 -17 -4 -4 -6 -11 -8 -16 -5 -5 3 -6 -1
-2 -10 4 -12 8 -13 13 -5 4 7 23 13 42 13 21 1 35 6 35 14 0 6 -5 9 -10 6 -6
-4 -8 0 -4 10 3 9 -1 23 -9 32 -9 8 -11 15 -5 15 13 0 10 22 -4 32 -6 5 -5 8
3 8 6 0 12 12 12 26 0 16 -4 23 -12 18 -7 -4 -8 -3 -4 4 4 7 15 12 24 12 14 0
15 2 2 9 -8 6 -19 7 -25 4 -5 -3 -4 0 3 8 15 17 16 53 0 43 -7 -4 -8 -3 -4 4
4 7 15 12 24 13 11 1 8 4 -8 9 -14 4 -18 8 -9 9 12 1 14 9 11 32 -3 23 -7 28
-14 18 -8 -11 -9 -11 -5 1 2 8 12 14 22 12 11 -2 14 1 10 8 -4 7 -3 15 3 19 7
4 4 11 -9 20 -12 7 -18 8 -14 2 3 -6 1 -11 -4 -11 -14 0 -14 13 1 28 9 9 9 12
0 12 -7 0 -12 9 -12 21 0 12 -5 19 -12 16 -7 -2 -26 0 -43 5 -16 5 -38 11 -48
13 -63 14 -188 86 -246 142 -18 18 -36 33 -40 33 -7 0 -42 55 -38 61 1 2 0 3
-2 2 -6 -4 -31 25 -31 36 0 6 -4 11 -9 11 -5 0 -12 7 -15 16 -5 12 -3 14 7 8
7 -5 5 -2 -5 8 -13 12 -15 18 -6 21 8 3 6 6 -4 6 -10 1 -18 7 -18 14 0 6 -7
25 -15 41 -12 23 -13 32 -3 44 11 13 10 15 -3 10 -13 -5 -16 -2 -11 14 3 12 1
19 -4 16 -5 -4 -10 5 -10 18 l-2 24 19 -23 c19 -22 19 -22 3 11 -9 18 -19 30
-23 28 -4 -3 -7 4 -7 14 0 10 5 16 11 14 7 -3 11 10 11 36 0 37 -6 45 -30 41
-5 -1 -4 5 3 13 7 8 10 20 6 25 -3 7 0 8 10 5 12 -5 13 -9 4 -20 -8 -10 -8
-14 0 -14 11 0 15 13 12 38 -1 6 3 12 9 12 5 0 1 9 -10 20 -11 11 -20 26 -19
33 0 9 2 9 6 -1 2 -6 10 -9 15 -6 6 4 8 2 4 -4 -3 -6 -3 -13 2 -16 4 -2 9 4 9
15 1 10 -2 19 -7 19 -4 0 -10 7 -14 15 -4 12 -2 13 13 5 16 -8 19 -6 16 8 -1
9 -10 16 -19 16 -22 -2 -20 3 5 17 12 6 19 7 16 2 -4 -5 0 -10 8 -10 19 0 8
16 -19 28 -16 7 -13 8 14 3 23 -3 30 -2 22 4 -8 5 -13 12 -13 16 3 20 0 26
-11 20 -7 -4 -8 -3 -4 5 4 6 12 8 18 5 7 -5 9 -2 5 8 -4 12 -1 14 14 11 11 -3
19 0 19 6 0 7 5 9 12 5 6 -4 8 -3 4 4 -3 6 -2 13 3 16 5 4 8 18 6 32 -1 17 2
24 11 20 7 -3 18 1 24 9 8 10 7 16 -5 22 -15 9 -15 11 0 23 13 11 15 10 10 -2
-6 -15 22 -34 33 -23 3 3 0 5 -6 5 -7 0 -12 5 -12 11 0 5 5 7 10 4 6 -3 10 -2
10 4 0 5 -6 12 -12 15 -7 4 -3 4 10 2 14 -3 22 1 22 9 0 9 -9 12 -27 9 -20 -3
-24 -2 -13 5 8 5 18 7 22 5 4 -3 8 1 8 8 0 8 3 9 8 3 6 -10 20 -11 40 -5 4 1
10 2 14 1 4 0 4 7 1 16 -4 10 -2 14 4 10 5 -3 10 0 10 8 0 11 -4 12 -14 3 -7
-6 -16 -8 -20 -4 -3 3 -1 6 6 6 7 0 10 3 7 8 -2 4 9 8 25 8 26 2 28 0 17 -15
-7 -9 0 -5 15 8 30 27 37 41 10 20 -16 -13 -17 -12 -4 3 7 10 18 15 25 11 26
-17 35 -11 25 14 -6 16 -6 22 1 18 6 -3 13 1 16 9 3 9 10 13 16 10 5 -3 1 -12
-9 -20 -12 -9 -13 -13 -5 -14 7 0 10 -5 6 -12 -4 -7 -3 -8 5 -4 6 4 8 12 5 18
-5 7 0 9 14 6 20 -6 20 -5 6 17 -10 16 -12 25 -4 30 6 3 10 3 9 -2 -3 -19 2
-31 17 -37 8 -3 13 -2 10 3 -7 12 22 23 37 14 6 -4 8 0 4 10 -3 9 1 21 11 29
15 11 15 11 5 -2 -9 -12 -8 -19 2 -33 11 -16 13 -16 19 -2 3 9 2 13 -4 10 -6
-3 -10 -1 -10 6 0 7 11 10 32 7 28 -4 29 -4 13 8 -10 7 -22 11 -28 7 -6 -3 -7
-1 -4 5 4 5 17 8 30 5 19 -4 20 -3 6 9 -16 13 -23 51 -7 42 5 -3 6 -10 3 -15
-3 -5 1 -6 10 -2 11 4 13 8 5 13 -13 8 -10 31 5 42 6 5 5 8 -4 8 -7 0 -11 6
-8 14 7 17 -16 39 -28 28 -5 -4 -5 -1 -1 6 4 7 11 10 15 8 4 -3 13 5 20 17 11
18 11 20 0 10 -21 -20 -34 -15 -15 6 11 12 13 21 7 25 -6 4 -8 13 -5 21 4 8
11 12 17 8 6 -3 7 -1 3 6 -6 9 -11 9 -21 1 -10 -8 -13 -5 -11 14 1 17 4 21 13
15 7 -7 14 -6 19 2 5 8 3 9 -6 4 -10 -6 -12 -4 -7 8 3 9 1 19 -5 23 -7 4 -8 3
-4 -4 4 -7 3 -12 -3 -12 -5 0 -9 9 -8 20 1 15 6 19 22 15 18 -5 18 -5 3 5 -10
6 -18 16 -18 21 0 6 5 7 12 3 7 -5 8 -3 4 5 -5 7 -14 10 -21 7 -8 -3 -11 2 -8
14 3 10 -1 22 -9 26 -19 13 -734 11 -783 -1z m811 -331 c1 -9 0 -13 -4 -10 -3
4 -7 14 -8 22 -1 9 0 13 4 10 3 -4 7 -14 8 -22z m-91 -112 c-3 -3 -11 0 -18 7
-9 10 -8 11 6 5 10 -3 15 -9 12 -12z m-232 -145 c-3 -5 -10 -2 -15 7 -5 9 -14
13 -20 10 -7 -4 -8 -2 -4 4 5 9 12 9 26 0 10 -7 16 -16 13 -21z m-93 -93 c0
-8 -19 -13 -24 -6 -3 5 1 9 9 9 8 0 15 -2 15 -3z m-49 -58 c17 10 9 -3 -13
-22 -12 -10 -18 -13 -14 -6 4 6 2 12 -3 12 -6 0 -11 5 -11 11 0 5 5 7 10 4 6
-3 10 0 11 7 0 10 2 10 6 0 2 -6 9 -10 14 -6z m-96 -254 c-3 -3 -11 0 -18 7
-9 10 -8 11 6 5 10 -3 15 -9 12 -12z m-8 -104 c4 -28 -6 -18 -12 12 -2 12 -1
20 2 16 4 -4 8 -16 10 -28z m-3728 -375 c2 -2 0 -3 -6 -3 -6 0 -21 9 -34 21
l-24 20 30 -17 c17 -10 32 -19 34 -21z m149 28 c16 12 16 12 0 -6 -18 -19 -18
-19 -35 0 -17 18 -17 18 0 6 14 -11 20 -11 35 0z m-497 -15 c5 3 9 -1 9 -8 0
-9 3 -9 10 2 5 8 10 10 10 4 0 -6 -3 -14 -6 -17 -10 -9 -44 12 -43 26 0 9 2 9
6 -1 2 -6 9 -10 14 -6z m153 1 c-3 -8 -12 -14 -21 -14 -13 0 -13 2 3 14 10 7
19 13 21 13 1 0 0 -6 -3 -13z m-474 -7 c0 -5 -5 -10 -11 -10 -5 0 -7 5 -4 10
3 6 8 10 11 10 2 0 4 -4 4 -10z m117 -12 c-3 -8 -6 -5 -6 6 -1 11 2 17 5 13 3
-3 4 -12 1 -19z m803 12 c0 -5 -2 -10 -4 -10 -3 0 -8 5 -11 10 -3 6 -1 10 4
10 6 0 11 -4 11 -10z m485 0 c10 8 15 8 20 0 5 -8 12 -7 23 2 15 12 16 11 3
-5 -10 -13 -17 -14 -26 -7 -9 8 -15 8 -20 0 -8 -13 -25 -3 -24 13 0 8 2 8 6
-1 4 -9 8 -10 18 -2z m-1243 -22 c-12 -12 -35 -1 -27 12 3 5 13 6 21 3 10 -4
12 -9 6 -15z m-212 2 c0 -5 -4 -10 -10 -10 -5 0 -10 5 -10 10 0 6 5 10 10 10
6 0 10 -4 10 -10z m24 -6 c3 -8 2 -12 -4 -9 -6 3 -10 10 -10 16 0 14 7 11 14
-7z m1666 11 c0 -7 -30 -13 -34 -7 -3 4 4 9 15 9 10 1 19 0 19 -2z m74 -11 c5
-14 4 -15 -9 -4 -17 14 -19 20 -6 20 5 0 12 -7 15 -16z m56 1 c-7 -9 -15 -13
-19 -10 -3 3 1 10 9 15 21 14 24 12 10 -5z m88 -9 c-7 -8 -15 -12 -17 -11 -5
6 10 25 20 25 5 0 4 -6 -3 -14z m-2234 -4 c3 -5 -1 -9 -9 -9 -8 0 -12 4 -9 9
3 4 7 8 9 8 2 0 6 -4 9 -8z m2389 -5 c7 3 9 2 4 -2 -12 -13 -47 -16 -47 -4 0
5 5 7 10 4 6 -3 10 0 11 7 0 10 2 10 6 0 2 -6 10 -9 16 -5z m-2508 -37 c3 -6
-1 -7 -9 -4 -18 7 -21 14 -7 14 6 0 13 -4 16 -10z m2745 6 c0 -3 -4 -8 -10
-11 -5 -3 -10 -1 -10 4 0 6 5 11 10 11 6 0 10 -2 10 -4z m104 -5 c-3 -4 -10
-7 -15 -7 -5 -1 -10 -2 -11 -4 -2 -1 -11 -3 -21 -5 -13 -2 -15 0 -8 9 6 7 21
12 35 12 14 0 23 -2 20 -5z m-2954 -26 c-7 -8 -16 -12 -21 -9 -16 9 -10 20 12
21 17 2 18 -1 9 -12z m3694 -74 c-8 -9 -44 -11 -44 -3 0 4 11 8 25 8 13 0 22
-2 19 -5z m76 -5 c0 -3 -4 -8 -10 -11 -5 -3 -10 -1 -10 4 0 6 5 11 10 11 6 0
10 -2 10 -4z m691 -149 c-10 -9 -11 -8 -5 6 3 10 9 15 12 12 3 -3 0 -11 -7
-18z m1105 -347 c0 -12 -4 -16 -9 -11 -5 5 -6 14 -3 20 10 15 12 14 12 -9z
m-379 -12 c-3 -8 -6 -5 -6 6 -1 11 2 17 5 13 3 -3 4 -12 1 -19z m86 7 c-3 -9
-8 -14 -10 -11 -3 3 -2 9 2 15 9 16 15 13 8 -4z m-143 -7 c0 11 26 10 35 -1 3
-4 2 -5 -1 -2 -4 2 -15 0 -25 -5 -12 -7 -20 -7 -24 0 -5 8 -12 7 -23 -2 -15
-12 -16 -11 -3 5 10 13 17 15 27 6 9 -7 14 -8 14 -1z m114 4 c3 -5 -1 -9 -9
-9 -8 0 -12 4 -9 9 3 4 7 8 9 8 2 0 6 -4 9 -8z m80 -7 c-4 -8 -11 -12 -16 -9
-6 4 -5 10 3 15 19 12 19 11 13 -6z m95 2 c21 5 37 -12 21 -22 -5 -3 -10 -1
-10 5 0 6 -7 10 -16 8 -10 -2 -18 3 -20 10 -1 7 0 8 2 3 3 -5 13 -7 23 -4z"/>
<path d="M8748 6541 c-3 -21 -2 -340 1 -389 1 -7 5 -11 10 -7 5 3 12 1 16 -5
4 -6 12 -8 18 -4 7 3 4 -1 -5 -9 -28 -22 -21 -29 10 -10 26 17 27 17 12 -2 -9
-11 -10 -16 -3 -11 19 11 53 16 53 7 0 -4 -6 -13 -12 -21 -11 -12 -10 -12 5
-1 9 7 17 9 17 4 0 -5 7 -10 15 -10 13 0 12 4 -2 21 -18 21 -18 21 3 3 11 -9
24 -14 29 -10 4 5 2 -3 -5 -17 l-13 -25 22 19 c11 11 24 16 28 13 3 -4 1 -7
-5 -7 -7 0 -12 -4 -12 -9 0 -4 11 -6 25 -3 21 4 24 1 18 -14 -6 -17 -5 -17 11
-5 15 13 18 12 23 -7 3 -12 10 -22 15 -22 5 0 6 6 3 13 -4 6 2 2 13 -11 14
-15 22 -18 25 -10 4 8 6 7 6 -4 1 -9 10 -19 20 -23 11 -3 25 -13 33 -22 9 -12
9 -15 1 -9 -7 4 -13 2 -13 -3 0 -6 8 -11 18 -11 10 0 34 -18 52 -41 26 -33 30
-43 19 -50 -11 -8 -10 -9 5 -7 11 2 20 -4 21 -14 2 -10 10 -25 19 -34 9 -8 14
-20 11 -25 -4 -5 -2 -9 3 -9 5 0 20 -33 32 -72 47 -148 34 -352 -31 -480 -89
-178 -247 -309 -429 -356 l-75 -20 0 -206 c0 -113 4 -206 8 -205 5 0 15 -8 24
-18 8 -10 12 -13 9 -8 -2 6 4 11 14 11 13 0 16 -4 9 -12 -6 -8 -4 -14 6 -18 9
-3 13 -2 10 3 -3 5 -1 12 5 16 9 6 14 -7 11 -27 0 -5 3 -8 9 -8 13 0 13 16 -1
43 -9 20 -9 20 4 5 8 -10 17 -15 20 -11 4 3 7 -1 7 -10 0 -21 17 -31 26 -16 5
8 3 9 -7 4 -11 -6 -12 -5 -2 5 10 11 16 10 33 -5 11 -10 23 -15 27 -12 3 4 0
7 -8 8 -8 0 2 7 21 14 48 18 55 18 39 -2 -12 -14 -12 -15 0 -9 8 5 16 4 21 -4
5 -8 9 -7 13 5 4 9 3 14 -1 11 -5 -3 -9 1 -9 8 0 7 6 13 13 13 7 0 11 -3 9 -7
-2 -4 11 -12 30 -17 34 -11 57 -2 34 13 -8 5 -9 3 -4 -7 5 -8 4 -10 0 -6 -5 4
-10 14 -11 22 -2 13 0 13 19 0 16 -11 24 -12 36 -2 9 7 8 2 -3 -11 -11 -12
-16 -25 -13 -29 4 -3 7 -1 7 5 0 7 5 12 11 12 5 0 7 -6 3 -12 -4 -7 2 -4 14 6
23 20 30 32 12 21 -5 -3 -10 -1 -10 5 0 7 7 9 16 6 9 -3 18 -6 21 -6 4 0 -2
-10 -13 -22 -10 -13 -12 -17 -4 -10 8 6 22 12 33 12 12 0 16 -4 11 -12 -6 -10
-3 -9 8 0 9 8 14 20 11 29 -5 13 -3 13 15 4 12 -7 22 -14 22 -17 0 -3 -4 -2
-10 1 -6 3 -7 -1 -3 -10 4 -13 8 -14 14 -4 6 10 11 10 26 -1 10 -8 7 -1 -7 15
-14 17 -18 24 -10 18 20 -18 30 -16 24 5 -5 14 -4 14 4 2 6 -8 9 -17 6 -21 -2
-4 4 -13 13 -20 14 -12 16 -12 8 0 -6 11 -4 13 8 8 11 -4 14 -2 11 7 -3 8 0
17 7 22 7 4 10 3 5 -4 -3 -6 -2 -13 4 -17 6 -4 8 -10 6 -14 -3 -4 1 -8 9 -8 8
0 11 5 8 10 -4 6 1 8 11 4 9 -4 15 -3 12 1 -3 4 5 14 17 22 20 12 21 12 8 -3
-16 -20 -1 -23 18 -4 11 10 12 8 6 -11 l-7 -24 21 21 c12 12 28 21 37 21 9 0
12 5 8 13 -4 6 -4 9 1 5 4 -4 15 -2 23 5 13 9 14 9 8 0 -4 -8 -2 -13 6 -13 10
0 9 -3 -2 -10 -8 -5 -11 -12 -7 -16 4 -4 13 1 21 11 8 11 18 15 26 10 9 -5 11
-4 6 3 -4 7 -2 12 3 12 6 0 11 5 11 11 0 7 -10 5 -25 -5 -14 -9 -25 -12 -25
-6 0 5 4 10 10 10 5 0 19 10 30 23 13 13 19 16 15 6 -8 -20 20 -46 31 -28 4 7
3 9 -4 5 -6 -3 -13 -2 -17 3 -6 11 29 34 38 25 3 -3 4 2 3 13 -2 10 6 24 18
31 14 9 15 12 4 8 -10 -3 -20 -1 -23 5 -4 5 -3 8 2 7 4 -2 8 2 8 7 0 6 -4 9
-8 7 -5 -1 -6 2 -2 8 4 7 13 6 27 -1 20 -11 20 -10 4 12 -9 13 -16 28 -16 34
0 5 4 5 8 -2 5 -8 13 -9 22 -3 10 7 11 10 3 10 -7 0 -13 5 -13 11 0 5 5 7 12
3 6 -4 8 -3 4 4 -3 5 -1 12 6 14 7 3 5 7 -6 11 -11 5 -15 3 -10 -5 4 -7 3 -8
-4 -4 -19 12 -14 26 11 26 17 0 19 2 7 9 -8 6 -18 7 -23 4 -5 -3 -3 4 4 15 7
12 16 19 20 16 4 -2 10 0 13 5 7 11 -13 9 -31 -2 -7 -5 -13 -4 -13 2 0 5 6 12
13 14 9 4 8 8 -3 16 -13 10 -11 14 10 33 16 14 19 19 8 15 -10 -4 -18 -3 -19
1 0 4 -2 17 -5 30 -2 12 1 22 7 22 5 0 7 -4 4 -10 -3 -5 -1 -10 5 -10 7 0 10
6 7 14 -3 8 -1 16 6 19 6 2 3 6 -7 10 -11 5 -15 3 -10 -5 4 -7 3 -8 -4 -4 -16
9 -2 38 15 32 11 -5 11 -2 2 17 -7 12 -13 22 -13 23 -1 0 5 8 12 16 11 13 10
16 -4 14 -16 -1 -18 12 -19 122 0 67 3 122 8 122 4 0 5 6 0 13 -12 20 -14 47
-2 47 6 0 7 5 2 13 -10 16 -11 77 -1 77 4 0 8 5 8 11 0 5 -5 7 -12 3 -6 -4 -8
-3 -5 2 3 6 2 16 -3 24 -6 10 -2 22 13 39 12 13 16 21 10 17 -8 -4 -13 -1 -13
8 0 9 4 16 8 16 5 0 9 7 9 15 0 16 -12 20 -20 8 -2 -5 -2 -2 -1 5 2 6 -2 12
-9 12 -8 0 -9 3 -1 8 6 4 10 34 10 69 -1 34 2 59 7 56 4 -2 5 -8 3 -12 -3 -4
0 -13 5 -21 7 -11 8 -8 5 10 -3 14 -5 31 -5 38 -1 7 -6 10 -13 6 -7 -4 -8 -3
-4 4 4 7 3 12 -3 12 -14 0 -7 27 15 51 10 12 13 19 7 15 -8 -4 -13 -1 -13 9 0
10 5 14 13 10 6 -4 3 1 -8 11 -20 16 -20 16 5 11 24 -6 24 -5 6 8 -10 8 -23
12 -27 9 -5 -3 -9 0 -9 6 0 6 8 10 17 8 12 -2 17 5 18 25 1 15 -2 30 -7 33 -4
3 -5 11 -1 17 11 18 12 38 2 31 -5 -3 -6 -10 -3 -16 4 -7 2 -8 -5 -4 -6 4 -9
11 -6 16 3 4 -1 11 -7 13 -8 3 -6 6 5 6 10 1 15 6 12 11 -4 6 -2 17 5 25 8 9
8 15 0 20 -8 5 -8 11 1 21 6 8 8 14 4 14 -4 0 -1 8 6 18 13 15 12 16 -3 3 -13
-9 -18 -10 -18 -2 0 7 -5 9 -12 5 -10 -6 -10 -4 -2 7 15 20 26 51 15 44 -5 -3
-12 -1 -15 4 -4 5 -1 13 5 17 8 4 7 9 -2 15 -10 6 -10 9 -2 9 6 0 10 9 8 20
-2 11 0 22 5 25 5 3 7 -3 5 -14 -3 -14 1 -18 12 -14 10 4 11 8 3 13 -6 4 -12
11 -12 16 1 5 -6 8 -14 6 -17 -4 -18 2 -1 28 10 17 9 22 -3 30 -9 6 -10 10 -3
10 7 0 10 7 7 18 -4 11 -3 13 3 5 6 -9 12 -6 22 10 13 20 13 21 -2 8 -12 -9
-17 -10 -17 -2 0 7 -4 10 -8 7 -5 -3 -9 2 -9 10 0 8 6 13 13 10 8 -3 16 0 20
6 4 6 3 8 -3 5 -12 -7 -38 19 -38 37 0 27 -41 89 -78 121 -72 62 -89 64 -514
63 l-381 -2 -4 -25z m1004 -523 c-9 -9 -9 -15 0 -27 8 -11 5 -10 -8 2 -16 15
-17 19 -4 27 21 13 26 12 12 -2z m-3 -125 c-1 -5 0 -10 1 -13 6 -15 6 -59 -1
-54 -4 2 -6 13 -4 24 2 11 0 22 -6 25 -12 8 -12 25 1 25 6 0 9 -3 9 -7z m7
-978 c1 -9 -4 -11 -14 -7 -10 4 -12 7 -4 10 7 2 9 9 5 15 -3 7 -2 8 2 4 5 -4
10 -14 11 -22z m-51 -405 c3 -5 1 -10 -4 -10 -6 0 -11 5 -11 10 0 6 2 10 4 10
3 0 8 -4 11 -10z m5 -25 c0 -7 -30 -13 -34 -7 -3 4 4 9 15 9 10 1 19 0 19 -2z
m-750 -95 c-8 -5 -17 -6 -20 -3 -3 3 1 8 8 10 6 3 9 10 6 16 -4 7 -1 7 7 -1
12 -11 12 -14 -1 -22z m412 -2 c-8 -8 -9 -4 -5 13 4 13 8 18 11 10 2 -7 -1
-18 -6 -23z m98 28 c0 -2 -11 -11 -25 -20 -14 -9 -25 -13 -25 -8 0 5 10 14 23
20 27 13 27 13 27 8z m-543 -12 c-3 -3 -12 -4 -19 -1 -8 3 -5 6 6 6 11 1 17
-2 13 -5z"/>
<path d="M1090 6530 c-9 -6 -10 -10 -3 -10 6 0 15 5 18 10 8 12 4 12 -15 0z"/>
<path d="M731 6516 c-8 -10 -9 -16 -1 -21 5 -3 10 -5 11 -3 4 18 7 38 4 38 -1
0 -8 -6 -14 -14z"/>
<path d="M375 6450 c3 -5 8 -10 11 -10 2 0 4 5 4 10 0 6 -5 10 -11 10 -5 0 -7
-4 -4 -10z"/>
<path d="M3086 6403 c1 -14 5 -28 9 -31 4 -4 6 0 5 8 -5 36 -1 43 18 29 14
-11 15 -11 5 1 -22 24 -40 20 -37 -7z"/>
<path d="M379 6373 c-13 -16 -12 -17 4 -4 16 13 21 21 13 21 -2 0 -10 -8 -17
-17z"/>
<path d="M2976 6222 c-3 -5 1 -9 9 -9 8 0 12 4 9 9 -3 4 -7 8 -9 8 -2 0 -6 -4
-9 -8z"/>
<path d="M9745 6220 c-3 -6 1 -7 9 -4 18 7 21 14 7 14 -6 0 -13 -4 -16 -10z"/>
<path d="M375 6210 c3 -5 8 -10 11 -10 2 0 4 5 4 10 0 6 -5 10 -11 10 -5 0 -7
-4 -4 -10z"/>
<path d="M733 6205 c0 -8 4 -12 9 -9 4 3 8 9 8 15 0 5 -4 9 -8 9 -5 0 -9 -7
-9 -15z"/>
<path d="M1085 6190 c-3 -5 -2 -10 4 -10 5 0 13 5 16 10 3 6 2 10 -4 10 -5 0
-13 -4 -16 -10z"/>
<path d="M2944 6151 c0 -11 5 -17 13 -14 10 4 11 9 2 19 -15 18 -15 18 -15 -5z"/>
<path d="M9745 6120 c-3 -6 1 -7 9 -4 18 7 21 14 7 14 -6 0 -13 -4 -16 -10z"/>
<path d="M8825 6099 c-4 -6 -5 -12 -2 -15 2 -3 7 2 10 11 7 17 1 20 -8 4z"/>
<path d="M395 5999 c-4 -6 -5 -12 -2 -15 2 -3 7 2 10 11 7 17 1 20 -8 4z"/>
<path d="M2880 5960 c-9 -6 -10 -10 -3 -10 6 0 15 5 18 10 8 12 4 12 -15 0z"/>
<path d="M740 5930 c8 -5 20 -10 25 -10 6 0 3 5 -5 10 -8 5 -19 10 -25 10 -5
0 -3 -5 5 -10z"/>
<path d="M1106 5928 c3 -5 10 -6 15 -3 13 9 11 12 -6 12 -8 0 -12 -4 -9 -9z"/>
<path d="M376 5902 c-3 -5 1 -9 9 -9 8 0 12 4 9 9 -3 4 -7 8 -9 8 -2 0 -6 -4
-9 -8z"/>
<path d="M8150 5829 c0 -5 5 -7 10 -4 6 3 10 8 10 11 0 2 -4 4 -10 4 -5 0 -10
-5 -10 -11z"/>
<path d="M8085 5750 c-3 -5 -2 -10 4 -10 5 0 13 5 16 10 3 6 2 10 -4 10 -5 0
-13 -4 -16 -10z"/>
<path d="M740 5729 c0 -5 5 -7 10 -4 6 3 10 8 10 11 0 2 -4 4 -10 4 -5 0 -10
-5 -10 -11z"/>
<path d="M1083 5724 c0 -7 6 -10 14 -7 7 3 13 8 13 12 0 4 -6 8 -13 8 -8 0
-14 -6 -14 -13z"/>
<path d="M9746 5712 c-7 -11 6 -26 24 -30 11 -2 10 1 -3 12 -18 14 -18 14 0
19 15 4 16 5 1 6 -9 0 -19 -3 -22 -7z"/>
<path d="M2830 5701 c0 -6 4 -13 10 -16 6 -3 7 1 4 9 -7 18 -14 21 -14 7z"/>
<path d="M380 5693 c0 -6 8 -17 18 -24 16 -13 16 -13 2 6 -8 11 -16 22 -17 24
-2 2 -3 0 -3 -6z"/>
<path d="M740 5650 c8 -5 20 -10 25 -10 6 0 3 5 -5 10 -8 5 -19 10 -25 10 -5
0 -3 -5 5 -10z"/>
<path d="M386 5598 c3 -5 10 -6 15 -3 13 9 11 12 -6 12 -8 0 -12 -4 -9 -9z"/>
<path d="M9759 5588 c-7 -13 -4 -48 3 -48 5 0 6 10 3 21 -5 16 -4 19 5 14 9
-5 11 -4 6 3 -7 11 -14 15 -17 10z"/>
<path d="M383 5537 c0 -8 6 -14 14 -14 9 0 10 4 2 14 -6 7 -12 13 -14 13 -1 0
-2 -6 -2 -13z"/>
<path d="M739 5518 c-10 -33 1 -52 16 -28 3 6 1 10 -5 10 -6 0 -8 5 -5 10 3 6
4 10 1 10 -3 0 -6 -1 -7 -2z"/>
<path d="M2794 5495 c3 -23 12 -26 13 -5 1 11 -2 20 -7 20 -4 0 -7 -7 -6 -15z"/>
<path d="M387 5469 c7 -7 15 -10 18 -7 3 3 -2 9 -12 12 -14 6 -15 5 -6 -5z"/>
<path d="M750 5449 c0 -5 -5 -7 -12 -3 -7 4 -8 3 -4 -4 4 -6 13 -9 21 -6 8 4
12 10 9 15 -7 12 -14 11 -14 -2z"/>
<path d="M1085 5451 c-6 -11 13 -26 22 -17 4 3 1 6 -6 6 -7 0 -9 5 -6 10 3 6
4 10 1 10 -3 0 -7 -4 -11 -9z"/>
<path d="M2810 5411 c0 -6 4 -13 10 -16 6 -3 7 1 4 9 -7 18 -14 21 -14 7z"/>
<path d="M9746 5412 c-7 -12 12 -38 21 -28 4 5 2 11 -5 13 -6 3 -10 9 -6 14 3
5 3 9 0 9 -3 0 -7 -4 -10 -8z"/>
<path d="M736 5388 c3 -4 11 -5 19 -1 21 7 19 12 -4 10 -11 0 -18 -5 -15 -9z"/>
<path d="M9776 5363 c-6 -14 -5 -15 5 -6 7 7 10 15 7 18 -3 3 -9 -2 -12 -12z"/>
<path d="M9756 5332 c-3 -5 1 -9 9 -9 8 0 12 4 9 9 -3 4 -7 8 -9 8 -2 0 -6 -4
-9 -8z"/>
<path d="M383 5319 c-13 -13 -6 -39 9 -39 6 0 5 6 -2 15 -12 14 -7 19 13 16 5
-1 6 3 2 9 -8 13 -9 12 -22 -1z"/>
<path d="M9753 5237 c0 -8 6 -14 13 -14 7 0 10 6 7 14 -3 7 -8 13 -12 13 -4 0
-8 -6 -8 -13z"/>
<path d="M8070 5229 c0 -5 5 -7 10 -4 6 3 10 8 10 11 0 2 -4 4 -10 4 -5 0 -10
-5 -10 -11z"/>
<path d="M2832 5188 c2 -7 -2 -12 -9 -11 -12 2 -12 -23 0 -32 4 -3 5 -2 2 2
-3 3 2 14 11 24 10 11 12 19 4 24 -6 4 -9 1 -8 -7z"/>
<path d="M9754 5155 c0 -19 2 -35 5 -35 4 0 7 16 8 35 0 19 -2 35 -6 35 -3 0
-6 -16 -7 -35z"/>
<path d="M2820 5126 c0 -2 7 -7 16 -10 8 -3 12 -2 9 4 -6 10 -25 14 -25 6z"/>
<path d="M4150 5092 c0 -4 9 -13 20 -20 19 -12 20 -11 8 8 -13 20 -28 27 -28
12z"/>
<path d="M4605 5090 c-4 -6 -11 -7 -17 -4 -7 4 -8 2 -4 -5 6 -9 11 -9 22 0 14
11 18 19 10 19 -3 0 -8 -5 -11 -10z"/>
<path d="M3873 5055 c0 -8 4 -12 9 -9 5 3 6 10 3 15 -9 13 -12 11 -12 -6z"/>
<path d="M5119 5062 c9 -7 10 -11 2 -15 -7 -4 -8 -5 0 -3 15 2 13 20 -3 24
-10 3 -10 2 1 -6z"/>
<path d="M9755 5059 c-10 -15 3 -25 16 -12 7 7 7 13 1 17 -6 3 -14 1 -17 -5z"/>
<path d="M392 5051 c-11 -7 -11 -9 0 -14 9 -3 15 1 15 9 0 8 -1 14 -1 14 -1 0
-7 -4 -14 -9z"/>
<path d="M4936 5048 c3 -4 11 -5 19 -1 21 7 19 12 -4 10 -11 0 -18 -5 -15 -9z"/>
<path d="M5395 5039 c-4 -6 -4 -13 -1 -16 3 -4 6 -1 6 6 0 7 5 9 12 5 7 -4 8
-3 4 4 -9 15 -13 15 -21 1z"/>
<path d="M3190 5011 c0 -6 4 -13 10 -16 6 -3 7 1 4 9 -7 18 -14 21 -14 7z"/>
<path d="M2864 4980 c0 -13 4 -16 10 -10 7 7 7 13 0 20 -6 6 -10 3 -10 -10z"/>
<path d="M3070 4992 c0 -4 10 -9 22 -9 18 -2 20 0 8 7 -18 12 -30 13 -30 2z"/>
<path d="M6000 4990 c-13 -8 -12 -10 3 -10 9 0 17 5 17 10 0 12 -1 12 -20 0z"/>
<path d="M9755 4990 c-3 -5 -1 -10 4 -10 6 0 11 5 11 10 0 6 -2 10 -4 10 -3 0
-8 -4 -11 -10z"/>
<path d="M6150 4969 c0 -5 5 -7 10 -4 6 3 10 8 10 11 0 2 -4 4 -10 4 -5 0 -10
-5 -10 -11z"/>
<path d="M6196 4953 c-6 -14 -5 -15 5 -6 7 7 10 15 7 18 -3 3 -9 -2 -12 -12z"/>
<path d="M6478 4928 c14 -18 47 -13 35 5 -5 8 -8 7 -11 -1 -3 -10 -7 -10 -20
0 -15 12 -15 11 -4 -4z"/>
<path d="M6735 4890 c-3 -5 -1 -10 4 -10 6 0 11 5 11 10 0 6 -2 10 -4 10 -3 0
-8 -4 -11 -10z"/>
<path d="M6870 4870 c0 -5 5 -10 10 -10 6 0 10 5 10 10 0 6 -4 10 -10 10 -5 0
-10 -4 -10 -10z"/>
<path d="M6903 4865 c-3 -9 -3 -18 -1 -21 3 -3 8 4 11 16 6 23 -1 27 -10 5z"/>
<path d="M7405 4782 c-5 -4 -11 -14 -13 -22 -2 -11 1 -11 12 3 12 15 14 16 20
2 6 -18 26 -20 26 -3 0 6 -3 8 -7 5 -3 -4 -11 0 -17 8 -6 8 -15 11 -21 7z"/>
<path d="M7523 4745 c0 -8 4 -12 9 -9 5 3 6 10 3 15 -9 13 -12 11 -12 -6z"/>
<path d="M9758 4753 c7 -3 16 -2 19 1 4 3 -2 6 -13 5 -11 0 -14 -3 -6 -6z"/>
<path d="M391 4736 c-9 -10 -9 -16 -1 -21 6 -4 14 -4 17 -1 4 3 1 6 -7 6 -10
0 -10 3 0 15 7 8 10 15 7 15 -2 0 -10 -6 -16 -14z"/>
<path d="M2960 4706 c0 -2 8 -10 18 -17 15 -13 16 -12 3 4 -13 16 -21 21 -21
13z"/>
<path d="M753 4615 c0 -8 4 -12 9 -9 5 3 6 10 3 15 -9 13 -12 11 -12 -6z"/>
<path d="M8606 4608 c3 -5 10 -6 15 -3 13 9 11 12 -6 12 -8 0 -12 -4 -9 -9z"/>
<path d="M9758 4573 c7 -3 16 -2 19 1 4 3 -2 6 -13 5 -11 0 -14 -3 -6 -6z"/>
<path d="M750 4531 c0 -6 4 -13 10 -16 6 -3 7 1 4 9 -7 18 -14 21 -14 7z"/>
<path d="M393 4508 c-4 -7 -8 -27 -8 -44 -1 -23 3 -30 13 -26 10 3 11 7 2 12
-9 6 -9 9 1 13 12 5 12 7 0 15 -12 9 -12 13 -2 26 8 9 11 16 8 16 -3 0 -9 -6
-14 -12z"/>
<path d="M8594 4474 c0 -20 11 -25 11 -6 0 4 3 12 7 18 4 6 1 11 -5 11 -7 0
-13 -11 -13 -23z"/>
<path d="M386 4403 c-6 -14 -5 -15 5 -6 7 7 10 15 7 18 -3 3 -9 -2 -12 -12z"/>
<path d="M9575 4399 c-4 -6 -5 -12 -2 -15 2 -3 7 2 10 11 7 17 1 20 -8 4z"/>
<path d="M7833 4375 c0 -8 4 -12 9 -9 4 3 8 9 8 15 0 5 -4 9 -8 9 -5 0 -9 -7
-9 -15z"/>
<path d="M9540 4380 c-9 -6 -10 -10 -3 -10 6 0 15 5 18 10 8 12 4 12 -15 0z"/>
<path d="M389 4358 c-6 -18 -3 -46 3 -42 5 4 7 12 4 19 -3 8 0 16 7 19 9 3 9
5 0 5 -7 1 -13 0 -14 -1z"/>
<path d="M1080 4286 c0 -2 7 -9 15 -16 9 -7 15 -8 15 -2 0 5 -7 12 -15 16 -8
3 -15 4 -15 2z"/>
<path d="M395 4150 c-3 -5 -1 -10 4 -10 6 0 11 5 11 10 0 6 -2 10 -4 10 -3 0
-8 -4 -11 -10z"/>
<path d="M1095 4010 c-3 -5 -1 -10 4 -10 6 0 11 5 11 10 0 6 -2 10 -4 10 -3 0
-8 -4 -11 -10z"/>
<path d="M380 3976 c0 -2 7 -7 16 -10 8 -3 12 -2 9 4 -6 10 -25 14 -25 6z"/>
<path d="M384 3863 c1 -7 8 -19 16 -26 12 -10 12 -9 1 6 -9 11 -10 17 -2 17 6
0 11 4 11 8 0 5 -6 9 -14 9 -7 0 -13 -6 -12 -14z"/>
<path d="M595 3840 c-4 -6 -3 -16 3 -22 13 -13 23 4 13 21 -7 10 -10 10 -16 1z"/>
<path d="M916 3842 c5 -4 12 -11 15 -15 3 -5 9 -2 12 5 3 9 -3 14 -15 15 -11
1 -16 -1 -12 -5z"/>
<path d="M2099 3833 c-8 -9 -9 -14 -2 -10 6 4 13 4 16 0 2 -5 2 -3 1 4 -2 6 2
14 9 17 8 3 8 5 1 5 -6 1 -18 -7 -25 -16z"/>
<path d="M230 3830 c0 -5 5 -10 11 -10 5 0 7 5 4 10 -3 6 -8 10 -11 10 -2 0
-4 -4 -4 -10z"/>
<path d="M1953 3815 c0 -7 6 -11 14 -8 7 3 13 6 13 8 0 2 -6 5 -13 8 -8 3 -14
-1 -14 -8z"/>
<path d="M35 3617 c-14 -24 -25 -47 -25 -50 0 -4 45 -7 100 -7 55 0 100 -1
100 -3 0 -1 -5 -18 -11 -37 -5 -19 -12 -42 -14 -50 -2 -8 -29 -95 -59 -194
-31 -98 -56 -182 -56 -187 0 -17 97 -10 117 9 11 9 65 71 119 137 108 131 144
172 144 165 0 -3 -18 -61 -40 -130 -42 -132 -48 -168 -28 -188 28 -28 57 -12
150 81 51 50 112 110 135 131 l42 39 -39 -96 c-22 -54 -40 -106 -40 -117 0
-32 34 -41 153 -39 111 1 142 8 163 37 9 13 13 12 25 -6 8 -11 27 -26 41 -33
35 -15 109 -4 136 21 25 24 32 25 32 5 0 -20 52 -28 168 -23 77 2 104 7 119
20 18 17 20 16 36 -3 16 -18 28 -20 135 -18 88 1 122 5 141 18 23 15 25 15 18
-2 -5 -15 0 -17 38 -17 69 0 108 22 219 123 11 9 24 17 28 17 5 0 5 -8 -1 -17
-5 -10 -13 -35 -19 -56 -17 -59 -2 -67 131 -67 80 0 120 4 141 15 26 14 31 14
46 0 25 -22 278 -22 326 1 19 9 34 23 34 32 0 13 4 12 23 -5 39 -36 79 -42
266 -40 176 2 180 2 206 27 l26 25 -10 -28 -11 -27 48 0 c48 0 85 16 143 60
34 26 38 30 82 69 l28 25 -16 -43 c-20 -56 -19 -97 1 -105 9 -3 63 -6 121 -6
106 0 173 17 173 44 1 6 9 2 18 -10 42 -50 108 -58 165 -20 35 24 36 24 53 5
15 -17 31 -19 128 -19 79 0 119 4 140 15 25 13 27 13 22 0 -4 -12 4 -15 40
-15 49 0 98 18 129 46 36 34 112 94 119 94 4 0 3 -8 -3 -17 -5 -10 -13 -35
-19 -56 -17 -59 -2 -67 131 -67 115 0 161 12 180 46 8 14 11 14 26 0 43 -39
83 -45 269 -43 176 2 181 3 206 26 23 22 27 23 43 9 36 -30 82 -37 262 -35
175 2 180 3 205 26 14 14 26 28 26 33 0 4 -78 8 -174 8 -211 0 -217 2 -186 81
11 27 20 52 20 54 0 3 20 5 45 5 l45 0 -20 -32 c-11 -18 -20 -36 -20 -40 0 -5
31 -8 68 -8 77 0 105 17 105 65 -1 59 -52 83 -182 83 -79 0 -97 -3 -143 -26
-63 -32 -99 -89 -91 -147 l5 -35 -165 0 c-137 0 -168 3 -181 16 -19 19 -20 9
3 69 15 39 24 51 43 53 19 2 25 -3 33 -30 29 -98 182 -58 160 42 -11 50 -51
63 -170 58 -83 -4 -109 -9 -145 -29 -61 -33 -92 -82 -88 -136 l3 -43 -81 0
-82 0 25 78 c31 96 34 119 17 133 -36 29 -120 -8 -219 -95 -21 -20 -40 -34
-42 -32 -2 1 5 29 16 62 l18 59 -70 3 c-38 2 -73 -1 -77 -5 -4 -4 -20 -52 -36
-105 l-29 -98 -82 0 c-46 0 -83 4 -83 8 0 5 14 48 30 97 17 49 30 93 30 97 0
5 -66 8 -146 7 -137 -1 -149 -3 -197 -28 -58 -30 -97 -89 -97 -148 l0 -33 -79
0 -79 0 18 58 c10 31 22 68 27 82 13 33 2 74 -21 78 -51 10 -117 -26 -220
-120 -11 -10 -21 -16 -23 -14 -2 2 5 30 15 62 l19 59 -65 3 c-36 2 -70 1 -76
-1 -7 -3 -25 -50 -41 -106 l-28 -101 -178 0 c-214 0 -220 2 -189 81 11 27 20
52 20 54 0 3 20 5 45 5 l45 0 -20 -32 c-11 -18 -20 -36 -20 -40 0 -5 31 -8 68
-8 77 0 105 17 105 66 -1 56 -58 82 -180 82 -73 0 -100 -4 -139 -22 -75 -35
-99 -72 -96 -148 l2 -38 -104 0 -105 0 23 68 c16 48 28 68 42 70 49 7 65 14
84 34 29 32 26 37 -29 40 l-49 3 24 75 c13 41 24 78 24 83 0 4 -18 7 -39 7
-35 0 -41 -4 -64 -42 -37 -64 -58 -84 -111 -110 -34 -16 -52 -33 -62 -55 l-13
-33 31 0 c27 0 30 -3 24 -22 -4 -13 -9 -30 -11 -38 -23 -82 -13 -75 -102 -78
l-81 -3 24 75 c36 114 37 125 9 138 -51 23 -88 5 -239 -121 -22 -18 -22 -20 7
72 l15 47 -72 0 c-84 0 -78 7 -116 -127 l-24 -83 -87 0 -87 0 33 105 33 106
-76 -3 -75 -3 -32 -100 -31 -100 -82 -3 c-45 -2 -82 1 -82 6 0 5 7 29 16 53 8
24 17 51 19 59 2 8 9 31 14 50 6 19 11 36 11 38 0 1 -66 2 -146 1 -137 -1
-149 -3 -197 -28 -58 -30 -97 -89 -97 -148 l0 -33 -85 0 c-47 0 -85 2 -85 5 0
3 22 61 50 131 27 69 50 133 51 142 5 31 -12 62 -37 68 -49 12 -62 4 -219
-140 -27 -25 -53 -46 -57 -46 -4 0 -2 15 3 33 63 201 66 217 44 233 -46 34
-98 11 -175 -76 -30 -35 -59 -68 -65 -74 -5 -6 -28 -31 -49 -56 -22 -24 -37
-38 -34 -30 9 24 60 191 73 243 20 73 13 77 -160 77 l-144 0 -26 -43z m1185
-329 c-1 -2 -9 -32 -19 -68 -18 -64 -19 -65 -52 -65 -28 0 -35 4 -37 23 -2 13
1 36 6 50 6 15 13 35 16 45 4 12 16 17 46 17 22 0 40 -1 40 -2z m2870 -2 c0
-2 -9 -34 -20 -70 -18 -57 -24 -66 -45 -66 -13 0 -30 7 -39 15 -15 16 -15 20
19 113 4 10 85 19 85 8z"/>
<path d="M6867 3644 c-64 -16 -96 -39 -113 -79 -20 -49 -18 -68 21 -180 19
-55 35 -112 35 -128 0 -78 -71 -127 -180 -123 -98 3 -160 44 -147 97 10 39 44
53 145 57 50 2 92 8 92 13 0 4 -5 20 -12 34 l-12 26 -120 -2 c-143 -2 -204
-17 -240 -60 -55 -65 -25 -153 68 -195 67 -30 92 -35 212 -40 80 -3 117 1 174
17 180 50 228 149 158 327 -53 135 -47 182 22 182 24 0 26 -3 22 -29 -3 -21 4
-37 26 -62 25 -28 37 -33 80 -35 44 -2 55 1 81 27 24 23 31 38 31 67 -1 41
-12 60 -51 86 -22 14 -47 17 -135 15 -60 -1 -131 -8 -157 -15z"/>
<path d="M1615 3621 c-31 -13 -55 -45 -61 -83 -5 -27 -1 -40 21 -66 83 -99
244 -2 178 108 -26 45 -85 62 -138 41z"/>
<path d="M8324 3498 c-31 -60 -86 -115 -124 -123 -34 -7 -46 -20 -55 -58 -6
-24 -5 -27 19 -27 31 0 31 1 7 -75 l-19 -60 -80 -3 -81 -3 14 27 c7 14 11 35
9 45 -2 11 -6 27 -8 37 -2 9 -13 40 -25 69 -12 31 -17 55 -11 58 11 7 13 45 4
70 -4 9 -18 21 -32 26 -23 9 -31 4 -79 -43 -48 -47 -52 -55 -48 -87 5 -34 2
-39 -46 -76 l-51 -40 42 -3 c29 -2 48 2 61 14 22 20 27 17 38 -24 7 -21 5 -36
-5 -50 -13 -19 -14 -19 -60 4 -61 31 -98 31 -130 -1 -22 -22 -33 -25 -104 -25
-44 0 -80 3 -80 8 0 4 14 47 30 97 17 49 30 93 30 97 0 5 -33 8 -74 8 l-74 0
-33 -105 -33 -105 -37 0 -38 0 13 43 c7 23 23 69 35 102 11 32 21 61 21 63 0
1 -35 2 -77 0 l-77 -3 -33 -95 c-17 -52 -32 -107 -33 -122 0 -31 32 -58 68
-58 l23 0 -20 -27 c-61 -83 -17 -183 79 -183 73 0 131 47 179 147 l30 61 81 4
c65 2 84 7 91 21 10 16 12 16 36 -3 24 -19 40 -20 221 -20 180 0 197 2 228 21
27 16 34 18 34 6 0 -22 32 -27 171 -27 136 0 185 10 195 42 6 20 6 20 27 0 40
-35 81 -41 267 -39 162 2 180 4 200 22 l23 20 -7 -22 c-7 -22 -5 -23 47 -23
59 0 67 4 179 95 41 33 59 43 54 30 -4 -11 -13 -40 -19 -63 -10 -39 -10 -45 8
-58 39 -28 85 -12 170 61 26 22 56 48 68 58 27 23 30 18 14 -29 -27 -76 -4
-93 130 -94 122 0 133 3 133 41 0 29 0 29 -64 29 l-65 0 21 53 c11 28 25 62
30 74 15 30 13 74 -3 84 -42 26 -95 5 -194 -76 -63 -51 -71 -54 -54 -24 37 69
26 109 -31 109 -44 0 -70 -13 -153 -79 -42 -34 -79 -61 -81 -61 -3 0 1 17 8
38 7 20 16 49 20 65 l6 27 -73 0 -73 0 -30 -102 -31 -103 -176 -3 c-212 -3
-218 -1 -187 79 11 27 20 52 20 54 0 3 18 5 40 5 43 0 50 -11 25 -44 -8 -11
-15 -23 -15 -28 0 -4 31 -8 68 -8 77 0 105 17 105 65 0 59 -64 87 -194 84
-142 -3 -219 -59 -221 -159 l-1 -50 -103 0 -103 0 21 63 c25 75 25 75 65 79
32 4 83 39 83 58 0 5 -23 10 -51 10 -45 0 -50 2 -44 18 11 28 45 136 45 145 0
4 -18 7 -40 7 -34 0 -42 -4 -56 -32z m-1046 -502 c-25 -75 -43 -75 -39 0 1 21
48 80 57 72 2 -3 -6 -35 -18 -72z"/>
</g>
</svg>
